<?xml version="1.0" encoding="utf-8"?>
<!-- Generator: Adobe Illustrator 22.1.0, SVG Export Plug-In . SVG Version: 6.00 Build 0)  -->
<svg version="1.1" id="Layer_1" xmlns="http://www.w3.org/2000/svg" xmlns:xlink="http://www.w3.org/1999/xlink" x="0px" y="0px"
	 viewBox="0 0 512 512" style="enable-background:new 0 0 512 512;" xml:space="preserve">
<style type="text/css">
	.st0{fill:#305A70;}
</style>
<g>
	<g>
		<g>
			<path class="st0" d="M373.7,0H138.5C62.2,0,0.2,62,0.2,138.3v235.2c0,76.3,62,138.3,138.3,138.3h235.2
				c76.3,0,138.3-62,138.3-138.3V138.3C512,62,450,0,373.7,0z M470.6,373.5c0,53.5-43.5,96.9-96.9,96.9H138.5
				c-53.5,0-96.9-43.5-96.9-96.9V138.3c0-53.5,43.5-96.9,96.9-96.9h235.2c53.5,0,96.9,43.5,96.9,96.9V373.5z"/>
		</g>
	</g>
	<g>
		<g>
			<path class="st0" d="M370.6,238.1c-3.6-24.5-14.8-46.8-32.4-64.3c-17.5-17.5-39.8-28.7-64.3-32.4c-11.2-1.7-22.5-1.7-33.7,0
				c-30.3,4.5-57.1,20.5-75.3,45.2c-18.3,24.6-25.8,54.9-21.3,85.2c4.5,30.3,20.5,57.1,45.2,75.3c20,14.8,43.7,22.6,68.1,22.6
				c5.7,0,11.4-0.4,17.1-1.3c30.3-4.5,57.1-20.5,75.3-45.2C367.5,298.7,375.1,268.4,370.6,238.1z M267.9,327.5
				c-19.4,2.9-38.8-2-54.5-13.7s-26-28.8-28.9-48.2c-2.9-19.4,2-38.8,13.7-54.5c11.7-15.8,28.8-26,48.2-28.9
				c3.6-0.5,7.2-0.8,10.8-0.8c3.6,0,7.2,0.3,10.8,0.8c32.2,4.8,57.1,29.6,61.9,61.9C335.7,284.2,307.9,321.6,267.9,327.5z"/>
		</g>
	</g>
	<g>
		<g>
			<path class="st0" d="M400.1,111.9c-3.9-3.8-9.2-6.1-14.6-6.1c-5.4,0-10.8,2.2-14.6,6.1c-3.8,3.9-6.1,9.2-6.1,14.6
				s2.2,10.8,6.1,14.6c3.9,3.8,9.2,6.1,14.6,6.1c5.4,0,10.8-2.2,14.6-6.1c3.8-3.9,6.1-9.2,6.1-14.6
				C406.1,121.1,403.9,115.8,400.1,111.9z"/>
		</g>
	</g>
</g>
</svg>
