<?xml version="1.0" encoding="utf-8"?>
<!-- Generator: Adobe Illustrator 22.1.0, SVG Export Plug-In . SVG Version: 6.00 Build 0)  -->
<svg version="1.1" id="Layer_1" xmlns="http://www.w3.org/2000/svg" xmlns:xlink="http://www.w3.org/1999/xlink" x="0px" y="0px"
	 viewBox="0 0 512 512" style="enable-background:new 0 0 512 512;" xml:space="preserve">
<style type="text/css">
	.st0{fill:#305A70;stroke:#305A70;stroke-width:10;stroke-miterlimit:10;}
</style>
<g>
	<g>
		<path class="st0" d="M506.8,138c-0.1-2.9-1.9-5.6-4.5-6.8L346.7,53.2c-3.7-1.9-8.2-0.6-10.5,2.8L231,218l-54.2-84
			c-0.8-1.2-1.9-2.2-3.2-2.8L17.9,53.2c-5.3-2.6-11.7,1.4-11.7,7.2v77.8c0,4.5,3.6,8.1,8.1,8.1s8.1-3.6,8.1-8.1V73.6l139.4,69.7
			v327.9L22.4,401.5V173c0-4.5-3.6-8.1-8.1-8.1s-8.1,3.6-8.1,8.1v233.6c0,3,1.8,5.9,4.5,7.2l155.7,77.8c5.3,2.6,11.7-1.4,11.7-7.2
			V333.2l317,158.5c5.3,2.6,11.7-1.4,11.7-7.2V138.4C506.8,138.3,506.8,138.1,506.8,138z M178.1,315V165.8l142,220.1L178.1,315z
			 M490.6,471.2l-136.2-68.2l106.2-182.9c2.2-3.9,1-8.8-2.9-11.1c-3.9-2.2-8.8-1-11.1,2.9L342.6,391l-102-158.1L345.9,71l141.5,70.8
			l-25.8,44.4c-2.2,3.9-1,8.8,2.9,11.1s8.8,1,11.1-2.9l15.1-25.8L490.6,471.2L490.6,471.2z"/>
	</g>
</g>
</svg>
