<?xml version="1.0" encoding="utf-8"?>
<!-- Generator: Adobe Illustrator 22.1.0, SVG Export Plug-In . SVG Version: 6.00 Build 0)  -->
<svg version="1.1" id="Layer_1" xmlns="http://www.w3.org/2000/svg" xmlns:xlink="http://www.w3.org/1999/xlink" x="0px" y="0px"
	 viewBox="0 0 952 318" style="enable-background:new 0 0 952 318;" xml:space="preserve">
<style type="text/css">
	.st0{fill:#CCDCE1;}
</style>
<g>
	<path class="st0" d="M126.6,44.6L52.9,202.9h12l18.5-39.7h83.3l17.6,39.7h11.8L126.6,44.6z M88.5,152.4L126,71.3l35.9,81.1H88.5z"
		/>
	<g>
		<path class="st0" d="M120.3,40.9c-8.3,17.8-16.5,35.5-24.8,53.3c-13.3,28.5-26.5,57-39.8,85.5c-3,6.5-6.1,13-9.1,19.5
			C44.4,204,47,210,52.8,210c4,0,8,0,12,0c2.4,0,5.2-1.3,6.2-3.6c6.2-13.2,12.4-26.5,18.5-39.7c-2.1,1.2-4.1,2.4-6.2,3.6
			c27.8,0,55.5,0,83.3,0c-2.1-1.2-4.1-2.4-6.2-3.6c5.9,13.2,11.7,26.5,17.6,39.7c1,2.2,3.9,3.6,6.2,3.6c3.9,0,7.9,0,11.8,0
			c5.9,0,8.3-6,6.2-10.8c-7.8-17.8-15.7-35.7-23.5-53.5c-12.4-28.3-24.9-56.6-37.3-85c-2.9-6.6-5.8-13.2-8.7-19.8
			c-1.6-3.6-6.8-4.3-9.9-2.6c-3.7,2.1-4.1,6.3-2.6,9.9c7.8,17.8,15.7,35.7,23.5,53.5c12.4,28.3,24.9,56.6,37.3,85
			c2.9,6.6,5.8,13.2,8.7,19.8c2.1-3.6,4.1-7.2,6.2-10.8c-3.9,0-7.9,0-11.8,0c2.1,1.2,4.1,2.4,6.2,3.6c-5.9-13.2-11.7-26.5-17.6-39.7
			c-1-2.2-3.9-3.6-6.2-3.6c-27.8,0-55.5,0-83.3,0c-2.4,0-5.2,1.3-6.2,3.6c-6.2,13.2-12.4,26.5-18.5,39.7c2.1-1.2,4.1-2.4,6.2-3.6
			c-4,0-8,0-12,0c2.1,3.6,4.1,7.2,6.2,10.8c8.3-17.8,16.5-35.5,24.8-53.3c13.3-28.5,26.5-57,39.8-85.5c3-6.5,6.1-13,9.1-19.5
			C136.7,39.9,124.2,32.5,120.3,40.9z"/>
		<path class="st0" d="M94.8,156c10.9-23.6,21.9-47.2,32.8-70.9c1.6-3.4,3.2-6.8,4.7-10.2c-4.1,0-8.3,0-12.4,0
			c10.4,23.6,20.9,47.3,31.3,70.9c1.5,3.4,3,6.8,4.5,10.2c2.1-3.6,4.1-7.2,6.2-10.8c-24.5,0-48.9,0-73.4,0c-9.3,0-9.3,14.4,0,14.4
			c24.5,0,48.9,0,73.4,0c5.9,0,8.4-6,6.2-10.8c-10.4-23.6-20.9-47.3-31.3-70.9c-1.5-3.4-3-6.8-4.5-10.2c-2.1-4.8-10.3-4.7-12.4,0
			C109,91.3,98,114.9,87.1,138.6c-1.6,3.4-3.2,6.8-4.7,10.2C78.5,157.1,90.9,164.4,94.8,156z"/>
	</g>
</g>
<g>
	<path class="st0" d="M293.3,204.6c-14.3,0-27.5-3.6-39.7-10.8s-21.8-17-28.9-29.2c-7.1-12.3-10.6-25.6-10.6-40.1
		s3.5-27.7,10.6-39.9s16.7-21.9,28.9-29.1s25.4-10.8,39.7-10.8c11.1,0,21.7,2.3,31.9,6.9c10.2,4.6,19.1,11,26.8,19.4l-8.4,7.5
		c-6.4-7.2-14-12.8-22.7-16.8s-17.9-6-27.5-6c-12.4,0-23.7,3.1-34.2,9.3c-10.4,6.2-18.7,14.6-24.9,25.1c-6.2,10.6-9.3,22.1-9.3,34.6
		s3.1,24.1,9.3,34.6c6.2,10.6,14.5,19,24.9,25.1c10.4,6.2,21.8,9.3,34.2,9.3c10.3,0,20-2.2,29.2-6.7s17.1-10.7,23.7-18.8l8.7,6.7
		c-7.5,9.5-16.7,16.8-27.4,22C316.7,202,305.3,204.6,293.3,204.6z"/>
	<g>
		<path class="st0" d="M293.3,197.4c-38.5-0.4-70.8-31.7-71.9-70.3c-1.1-38,28-72.6,66.6-75.1c22.5-1.5,43.6,7.6,58.9,23.9
			c0-3.4,0-6.8,0-10.2c-2.8,2.5-5.6,5-8.4,7.5c3.4,0,6.8,0,10.2,0c-16.7-18.4-41.3-27.6-66-24.2c-22.9,3.1-43.1,17.3-54.7,37.2
			c-12.7,21.8-13.5,49.3-2.5,72c10,20.5,29.7,36.4,52.1,41c27.5,5.6,55.7-4.6,73.6-26c-3.4,0-6.8,0-10.2,0c2.9,2.2,5.8,4.5,8.7,6.7
			c0-3.4,0-6.8,0-10.2C335.7,187,315.7,197.1,293.3,197.4c-9.3,0.1-9.3,14.5,0,14.4c25.9-0.3,50.3-11.8,66.7-31.9
			c2.2-2.7,3.3-7.6,0-10.2c-2.9-2.2-5.8-4.5-8.7-6.7c-2.9-2.2-7.4-3.3-10.2,0c-13.1,15.6-31.7,24.5-52.2,23.3
			c-19-1.2-36.6-12.1-46.8-28c-11-17.1-13.2-39.1-5.2-57.9c7.5-17.5,22.9-31.1,41.3-35.9c22.2-5.7,45.1,2.2,60.3,18.9
			c2.7,3,7.4,2.5,10.2,0c2.8-2.5,5.6-5,8.4-7.5c3-2.6,2.5-7.5,0-10.2c-16.1-17.1-38.3-27.8-62-28.3c-22.5-0.5-44.3,8.1-60.7,23.4
			c-33.5,31.2-36.1,84.2-7.5,119.4c16.2,20,40.9,31.3,66.4,31.6C302.6,211.9,302.6,197.5,293.3,197.4z"/>
	</g>
</g>
<g>
	<path class="st0" d="M448.5,204.6c-7.9,0-15.4-1.6-22.7-4.7c-7.3-3.1-13.8-7.6-19.4-13.4c-5.6-5.5-9.9-11.9-12.9-19.2
		c-3-7.4-4.5-15.2-4.5-23.3V46.5h10.8v97.4c0,6.7,1.2,13.2,3.7,19.2c2.5,6.1,6,11.4,10.5,15.9c4.7,4.7,9.9,8.2,15.9,10.7
		c5.9,2.5,12.1,3.7,18.5,3.7c6.6,0,12.8-1.2,18.8-3.7c5.9-2.5,11.2-6.1,15.9-10.7c4.5-4.5,8-9.8,10.5-15.9
		c2.5-6.1,3.7-12.5,3.7-19.2V46.5h10.8v97.4c0,8.2-1.5,16-4.5,23.3c-3,7.4-7.3,13.8-12.9,19.2c-5.6,5.8-12,10.2-19.2,13.4
		C464.4,203,456.7,204.6,448.5,204.6z"/>
	<g>
		<path class="st0" d="M448.5,197.4c-22-0.3-42.6-14.9-49.5-36c-2.8-8.7-2.8-17.4-2.8-26.4c0-22.8,0-45.6,0-68.4
			c0-6.7,0-13.4,0-20.1c-2.4,2.4-4.8,4.8-7.2,7.2c3.6,0,7.2,0,10.8,0c-2.4-2.4-4.8-4.8-7.2-7.2c0,17.7,0,35.5,0,53.2
			c0,11.2,0,22.5,0,33.7c0,8.7-0.3,17.3,2,25.8c5.6,20.9,23.5,37.4,45,40.8c22.1,3.5,44.8-6.8,56.5-25.9
			c11.6-18.9,8.3-43.8,8.3-65.1c0-20.8,0-41.7,0-62.5c-2.4,2.4-4.8,4.8-7.2,7.2c3.6,0,7.2,0,10.8,0c-2.4-2.4-4.8-4.8-7.2-7.2
			c0,17.4,0,34.8,0,52.2c0,11.1,0,22.3,0,33.4c0,7.5,0.5,15.4-1,22.7C494.9,179.3,473.4,197,448.5,197.4c-9.3,0.1-9.3,14.5,0,14.4
			c23.5-0.3,45.8-12.9,57.7-33.3c7.1-12.2,9.1-25.6,9.1-39.4c0-23.3,0-46.6,0-69.9c0-7.6,0-15.1,0-22.7c0-3.9-3.3-7.2-7.2-7.2
			c-3.6,0-7.2,0-10.8,0c-3.9,0-7.2,3.3-7.2,7.2c0,32.5,0.4,65,0,97.4c-0.3,20.2-13.8,37.8-33.9,41.7c-20,3.9-40.6-8.4-46.9-27.7
			c-2.5-7.7-2.2-15.6-2.2-23.5c0-10.2,0-20.5,0-30.7c0-19,0-38.1,0-57.1c0-3.9-3.3-7.2-7.2-7.2c-3.6,0-7.2,0-10.8,0
			c-3.9,0-7.2,3.3-7.2,7.2c0,18.7,0,37.4,0,56.2c0,11.3,0,22.5,0,33.8c0,11.2,0.5,22.1,4.7,32.7c10,25.3,34.9,42.2,61.9,42.6
			C457.8,211.9,457.8,197.5,448.5,197.4z"/>
	</g>
</g>
<g>
	<rect x="555.1" y="46.5" class="st0" width="10.8" height="156.4"/>
	<g>
		<path class="st0" d="M562.3,202.9c0-45.6,0-91.2,0-136.8c0-6.5,0-13.1,0-19.6c-2.4,2.4-4.8,4.8-7.2,7.2c3.6,0,7.2,0,10.8,0
			c-2.4-2.4-4.8-4.8-7.2-7.2c0,45.6,0,91.2,0,136.8c0,6.5,0,13.1,0,19.6c2.4-2.4,4.8-4.8,7.2-7.2c-3.6,0-7.2,0-10.8,0
			c-9.3,0-9.3,14.4,0,14.4c3.6,0,7.2,0,10.8,0c3.9,0,7.2-3.3,7.2-7.2c0-45.6,0-91.2,0-136.8c0-6.5,0-13.1,0-19.6
			c0-3.9-3.3-7.2-7.2-7.2c-3.6,0-7.2,0-10.8,0c-3.9,0-7.2,3.3-7.2,7.2c0,45.6,0,91.2,0,136.8c0,6.5,0,13.1,0,19.6
			C547.9,212.2,562.3,212.2,562.3,202.9z"/>
	</g>
</g>
<g>
	<polygon class="st0" points="737.5,46.5 737.5,57.6 675.6,57.6 675.6,202.9 664.6,202.9 664.6,57.6 602.5,57.6 602.5,46.5 	"/>
	<g>
		<path class="st0" d="M730.3,46.5c0,3.7,0,7.4,0,11.1c2.4-2.4,4.8-4.8,7.2-7.2c-20.6,0-41.2,0-61.8,0c-3.9,0-7.2,3.3-7.2,7.2
			c0,42.4,0,84.9,0,127.3c0,6,0,12,0,18c2.4-2.4,4.8-4.8,7.2-7.2c-3.7,0-7.4,0-11.1,0c2.4,2.4,4.8,4.8,7.2,7.2
			c0-42.4,0-84.9,0-127.3c0-6,0-12,0-18c0-3.9-3.3-7.2-7.2-7.2c-20.7,0-41.4,0-62.1,0c2.4,2.4,4.8,4.8,7.2,7.2c0-3.7,0-7.4,0-11.1
			c-2.4,2.4-4.8,4.8-7.2,7.2c39.3,0,78.7,0,118,0c5.7,0,11.3,0,17,0c9.3,0,9.3-14.4,0-14.4c-39.3,0-78.7,0-118,0c-5.7,0-11.3,0-17,0
			c-3.9,0-7.2,3.3-7.2,7.2c0,3.7,0,7.4,0,11.1c0,3.9,3.3,7.2,7.2,7.2c20.7,0,41.4,0,62.1,0c-2.4-2.4-4.8-4.8-7.2-7.2
			c0,42.4,0,84.9,0,127.3c0,6,0,12,0,18c0,3.9,3.3,7.2,7.2,7.2c3.7,0,7.4,0,11.1,0c3.9,0,7.2-3.3,7.2-7.2c0-42.4,0-84.9,0-127.3
			c0-6,0-12,0-18c-2.4,2.4-4.8,4.8-7.2,7.2c20.6,0,41.2,0,61.8,0c3.9,0,7.2-3.3,7.2-7.2c0-3.7,0-7.4,0-11.1
			C744.7,37.2,730.3,37.2,730.3,46.5z"/>
	</g>
</g>
<g>
	<polygon class="st0" points="836.8,137 898.4,46.5 911.4,46.5 842.1,148.8 842.1,202.9 831.3,202.9 831.3,148.8 762,46.5 775,46.5 
			"/>
	<g>
		<path class="st0" d="M843,140.6c18-26.4,35.9-52.8,53.9-79.1c2.6-3.8,5.1-7.5,7.7-11.3c-2.1,1.2-4.1,2.4-6.2,3.6c4.3,0,8.7,0,13,0
			c-2.1-3.6-4.1-7.2-6.2-10.8c-13.9,20.5-27.7,40.9-41.6,61.4c-7.8,11.5-15.6,23.1-23.5,34.6c-1.4,2-3.1,4-4.2,6.2
			c-2,3.8-1,9.6-1,13.7c0,14.7,0,29.4,0,44.1c2.4-2.4,4.8-4.8,7.2-7.2c-3.6,0-7.2,0-10.8,0c2.4,2.4,4.8,4.8,7.2,7.2
			c0-12.7,0-25.4,0-38.2c0-5.2,0.3-10.6,0-15.8c-0.2-3.2-1.9-5.1-3.5-7.6c-16.7-24.6-33.3-49.2-50-73.8
			c-5.6-8.2-11.2-16.5-16.7-24.7c-2.1,3.6-4.1,7.2-6.2,10.8c4.3,0,8.7,0,13,0c-2.1-1.2-4.1-2.4-6.2-3.6c18,26.4,36.1,52.8,54.1,79.1
			c2.6,3.8,5.2,7.5,7.7,11.3c5.2,7.6,17.7,0.4,12.4-7.3c-19.9-29.2-39.9-58.3-59.8-87.5c-1.7-2.5-3.3-5.4-6.4-6.3
			c-4.5-1.3-10.3-0.3-14.9-0.3c-5.2,0-9.3,6.2-6.2,10.8C769.4,70,783,90,796.6,110.1c7.9,11.7,15.8,23.3,23.7,35c0.4,0.6,4,7,4.7,7
			c-0.7,0.1-0.9-5.9-0.9-1.3c0,2.7,0,5.4,0,8.2c0,14.6,0,29.2,0,43.7c0,3.9,3.3,7.2,7.2,7.2c3.6,0,7.2,0,10.8,0
			c3.9,0,7.2-3.3,7.2-7.2c0-12.6,0-25.1,0-37.7c0-3.5,0-6.9,0-10.4c0-1.3,0.6-4.5,0-5.6c-0.5-1-0.8,3-0.9,3.2
			c0.2-0.2,0.3-0.5,0.5-0.7c0.9-1,1.6-2.3,2.3-3.4c16.6-24.5,33.3-49.1,49.9-73.6c5.5-8.1,11-16.2,16.5-24.3
			c3.1-4.6-1-10.8-6.2-10.8c-4.2,0-8.5-0.3-12.8,0c-3.7,0.2-5.6,2.4-7.5,5.2c-4.2,6.1-8.3,12.2-12.5,18.3
			c-12.7,18.7-25.4,37.3-38.1,56c-3.3,4.9-6.6,9.7-9.9,14.6C825.4,141,837.9,148.2,843,140.6z"/>
	</g>
</g>
<g>
	<path class="st0" d="M235.2,283.4h-7.3v13h-7.4v-35.8h14.8c4.2,0,7.6,1,10,3.1c2.5,2.1,3.7,4.8,3.7,8.3s-1.2,6.2-3.7,8.3
		C242.8,282.3,239.5,283.4,235.2,283.4z M227.9,266.1v11.8h7.3c2,0,3.6-0.5,4.7-1.6c1.1-1.1,1.6-2.5,1.6-4.3s-0.5-3.2-1.6-4.3
		c-1.1-1.1-2.7-1.6-4.7-1.6H227.9z"/>
	<path class="st0" d="M252.3,283.4v-0.5c0-4.1,1.2-7.3,3.5-9.8s5.5-3.7,9.5-3.7s7.2,1.2,9.5,3.7s3.5,5.8,3.5,9.8v0.5
		c0,4.1-1.2,7.4-3.5,9.8c-2.3,2.5-5.5,3.7-9.5,3.7s-7.2-1.2-9.5-3.7C253.5,290.7,252.3,287.4,252.3,283.4z M259.7,282.8v0.5
		c0,2.5,0.5,4.5,1.4,5.9s2.3,2.1,4.2,2.1c1.9,0,3.3-0.7,4.2-2.1s1.4-3.4,1.4-5.9v-0.5c0-2.5-0.5-4.4-1.4-5.9
		c-0.9-1.4-2.3-2.1-4.2-2.1s-3.3,0.7-4.2,2.2C260.2,278.4,259.7,280.4,259.7,282.8z"/>
	<path class="st0" d="M301.6,269.7l5.2,17.1h0.1l3.6-17.1h7l-7,26.6h-6.2l-5.1-15.9H299l-5.1,15.9h-6.2l-7-26.6h7l3.6,17.1h0.2
		l5.1-17.1H301.6z"/>
	<path class="st0" d="M333.4,296.9c-4,0-7.1-1.2-9.5-3.6s-3.6-5.6-3.6-9.4v-1c0-2.6,0.5-5,1.5-7.1s2.5-3.7,4.4-4.8
		c1.9-1.2,4.1-1.7,6.6-1.7c3.7,0,6.6,1.1,8.6,3.2c2.1,2.1,3.1,5.1,3.1,8.8v3.9H328l-0.1,0.2c0.1,1.8,0.7,3.3,1.8,4.4
		c1.1,1.1,2.5,1.7,4.2,1.7s3.1-0.2,4.2-0.5s2.3-0.8,3.7-1.5l2,4.4l0,0c-1.2,0.9-2.7,1.7-4.5,2.3
		C337.5,296.7,335.5,296.9,333.4,296.9z M337.1,279.9c0-1.6-0.4-2.8-1.1-3.7c-0.7-0.9-1.8-1.3-3.2-1.3c-1.4,0-2.5,0.5-3.3,1.5
		s-1.3,2.3-1.5,4l0.1,0.1h9.1v-0.6H337.1z"/>
	<path class="st0" d="M356.2,296.3h-7.4v-26.6h6.9l0.3,3.9c1.4-3,3.4-4.4,6.1-4.4c0.6,0,1.3,0.1,2,0.3l-0.8,6.4l-2.7-0.1
		c-2.1,0-3.5,0.8-4.4,2.5V296.3L356.2,296.3z"/>
	<path class="st0" d="M379.2,296.9c-4,0-7.1-1.2-9.5-3.6s-3.6-5.6-3.6-9.4v-1c0-2.6,0.5-5,1.5-7.1s2.5-3.7,4.4-4.8
		c1.9-1.2,4.1-1.7,6.6-1.7c3.7,0,6.6,1.1,8.6,3.2c2.1,2.1,3.1,5.1,3.1,8.8v3.9h-16.4l-0.1,0.2c0.1,1.8,0.7,3.3,1.8,4.4
		s2.5,1.7,4.2,1.7s3.1-0.2,4.2-0.5s2.3-0.8,3.7-1.5l2,4.4l0,0c-1.2,0.9-2.7,1.7-4.5,2.3C383.3,296.7,381.4,296.9,379.2,296.9z
		 M382.9,279.9c0-1.6-0.4-2.8-1.1-3.7c-0.7-0.9-1.8-1.3-3.2-1.3c-1.4,0-2.5,0.5-3.3,1.5s-1.3,2.3-1.5,4l0.1,0.1h9.1v-0.6H382.9z"/>
	<path class="st0" d="M404.2,269.3c2.7,0,4.9,1.1,6.6,3.3V258h7.5v38.4h-6.4l-0.6-3.3c-1.8,2.5-4.2,3.8-7.1,3.8
		c-3.4,0-6-1.2-7.9-3.5c-1.9-2.4-2.8-5.5-2.8-9.6v-0.5c0-4.3,0.9-7.7,2.8-10.2C398.2,270.5,400.8,269.3,404.2,269.3z M406,291.3
		c2.1,0,3.7-0.8,4.7-2.5v-11.3c-1.1-1.8-2.6-2.7-4.7-2.7c-1.8,0-3.1,0.7-4,2.2s-1.3,3.6-1.3,6.2v0.5
		C400.8,288.8,402.6,291.3,406,291.3z"/>
	<path class="st0" d="M463.5,283.3v0.5c0,4.1-0.9,7.3-2.8,9.6c-1.8,2.3-4.5,3.5-7.9,3.5c-3.1,0-5.5-1.3-7.2-3.8l-0.6,3.3h-6.4V258
		h7.4v14.6c1.6-2.2,3.8-3.3,6.7-3.3c3.5,0,6.1,1.3,8,3.8C462.5,275.5,463.5,279,463.5,283.3z M456.1,283.8v-0.5
		c0-2.7-0.4-4.8-1.2-6.3c-0.8-1.4-2.1-2.2-4-2.2c-2.3,0-3.9,0.9-4.8,2.7v11.3c0.9,1.7,2.5,2.5,4.9,2.5c1.8,0,3.2-0.6,4-1.9
		C455.7,288.2,456.1,286.3,456.1,283.8z"/>
	<path class="st0" d="M468.5,302.5l1.4,0.1c2.1,0,3.5-1,4.4-3.1l0.8-2.1l-9.8-26.6h8l4.6,15.4l0.3,1.5h0.1l5.3-16.9h8l-11.2,30.6
		c-0.4,1-0.9,1.9-1.4,2.7c-0.5,0.7-1.1,1.4-1.8,2.1c-1.4,1.3-3.4,2-6,2c-0.8,0-2-0.2-3.7-0.6L468.5,302.5z"/>
	<path class="st0" d="M524.7,283.4h-7.3v13H510v-35.8h14.8c4.2,0,7.6,1,10,3.1c2.5,2.1,3.7,4.8,3.7,8.3s-1.2,6.2-3.7,8.3
		C532.3,282.3,528.9,283.4,524.7,283.4z M517.3,266.1v11.8h7.3c2,0,3.6-0.5,4.7-1.6s1.6-2.5,1.6-4.3s-0.5-3.2-1.6-4.3
		c-1.1-1.1-2.7-1.6-4.7-1.6H517.3z"/>
	<path class="st0" d="M550.6,296.9c-2.9,0-5.1-0.7-6.6-2.1s-2.3-3.4-2.3-6s1-4.6,3.1-6s5.1-2.1,9.1-2.1h4.1v-2.1c0-1.3-0.3-2.3-1-3
		s-1.7-1-3-1s-2.2,0.3-2.9,0.8c-0.7,0.6-1,1.3-1,2.4h-7.2v-0.1c-0.1-2.3,0.9-4.3,3-5.9c2.2-1.6,4.9-2.4,8.3-2.4s6.1,0.8,8.1,2.5
		c2,1.6,3,3.9,3,6.9v11c0,2.4,0.4,4.6,1.2,6.8h-7.4c-0.6-1.3-1-2.7-1.1-4C556.2,295.4,553.7,296.9,550.6,296.9z M548.9,288.7
		L548.9,288.7c0,0.9,0.3,1.6,0.9,2.1s1.5,0.8,2.7,0.8s2.2-0.3,3.3-0.9c1-0.6,1.7-1.3,2.1-2.2v-3.8h-4.1c-1.5,0-2.7,0.4-3.6,1.1
		C549.3,286.6,548.9,287.5,548.9,288.7z"/>
	<path class="st0" d="M578.4,296.3H571v-26.6h6.9l0.3,3.9c1.4-3,3.4-4.4,6.1-4.4c0.6,0,1.3,0.1,2,0.3l-0.8,6.4l-2.7-0.1
		c-2.1,0-3.5,0.8-4.4,2.5L578.4,296.3L578.4,296.3z"/>
	<path class="st0" d="M596.8,296.9c-2.9,0-5.1-0.7-6.6-2.1c-1.6-1.4-2.3-3.4-2.3-6s1-4.6,3.1-6s5.1-2.1,9.1-2.1h4.1v-2.1
		c0-1.3-0.3-2.3-1-3s-1.7-1-3-1s-2.2,0.3-2.9,0.8c-0.7,0.6-1,1.3-1,2.4h-7.2v-0.1c-0.1-2.3,0.9-4.3,3-5.9c2.2-1.6,4.9-2.4,8.3-2.4
		c3.4,0,6.1,0.8,8.1,2.5s3,3.9,3,6.9v11c0,2.4,0.4,4.6,1.2,6.8h-7.4c-0.6-1.3-1-2.7-1.1-4C602.4,295.4,599.9,296.9,596.8,296.9z
		 M595.1,288.7L595.1,288.7c0,0.9,0.3,1.6,0.9,2.1s1.5,0.8,2.7,0.8s2.2-0.3,3.3-0.9c1-0.6,1.7-1.3,2.1-2.2v-3.8H600
		c-1.5,0-2.7,0.4-3.6,1.1C595.5,286.6,595.1,287.5,595.1,288.7z"/>
	<path class="st0" d="M625,258v38.4h-7.4V258H625z"/>
	<path class="st0" d="M640.1,296.9c-3,0-5.3-0.9-6.9-2.7c-1.6-1.8-2.4-4.6-2.4-8.3v-16.1h7.4v16.1c0,1.9,0.3,3.3,1,4.2
		c0.7,0.9,1.7,1.3,3.1,1.3c2.3,0,4-0.7,5.1-2.2v-19.4h7.4v26.6h-6.3l-0.6-3.8C646.1,295.5,643.5,296.9,640.1,296.9z"/>
	<path class="st0" d="M666.6,282.8v0.8c0,5.3,1.8,7.9,5.4,7.9c1.3,0,2.4-0.4,3.2-1.1s1.2-1.7,1.2-3h6.8l0.1,0.1c0.1,2.7-1,5-3.1,6.8
		s-4.8,2.7-8.1,2.7c-4,0-7.2-1.2-9.4-3.7c-2.3-2.5-3.4-5.7-3.4-9.7v-0.7c0-4,1.1-7.3,3.4-9.8c2.3-2.5,5.4-3.7,9.4-3.7
		c3.4,0,6.1,0.9,8.2,2.8c2.1,1.9,3.1,4.3,3,7.4v0.1h-6.8c0-1.4-0.4-2.6-1.2-3.5s-1.9-1.4-3.2-1.4
		C668.4,274.8,666.6,277.5,666.6,282.8z"/>
	<path class="st0" d="M699.6,296.9c-4,0-7.1-1.2-9.5-3.6s-3.6-5.6-3.6-9.4v-1c0-2.6,0.5-5,1.5-7.1s2.5-3.7,4.4-4.8
		c1.9-1.2,4.1-1.7,6.6-1.7c3.7,0,6.6,1.1,8.6,3.2c2.1,2.1,3.1,5.1,3.1,8.8v3.9h-16.4l-0.1,0.2c0.1,1.8,0.7,3.3,1.8,4.4
		s2.5,1.7,4.2,1.7s3.1-0.2,4.2-0.5c1.1-0.3,2.3-0.8,3.7-1.5l2,4.4l0,0c-1.2,0.9-2.7,1.7-4.5,2.3S701.8,296.9,699.6,296.9z
		 M703.4,279.9c0-1.6-0.4-2.8-1.1-3.7c-0.7-0.9-1.8-1.3-3.2-1.3s-2.5,0.5-3.3,1.5s-1.3,2.3-1.5,4l0.1,0.1h9.1L703.4,279.9
		L703.4,279.9z"/>
	<path class="st0" d="M730,269.2c2.8,0,5,0.9,6.6,2.6c1.5,1.7,2.3,4.4,2.3,7.9v16.6h-7.5v-16.6c0-1.8-0.4-3-1.1-3.8
		c-0.7-0.8-1.9-1.1-3.4-1.1c-2,0-3.5,0.7-4.6,2.2v19.3h-7.4v-26.6h7l0.3,3.8C724,270.7,726.7,269.2,730,269.2z"/>
	<path class="st0" d="M745.8,263.3h7.4v6.5h4.6v5.1h-4.6v13.6c0,1.9,0.8,2.9,2.5,2.9c0.6,0,1.2-0.1,2-0.3l0.6,5.2
		c-1.6,0.5-3.1,0.7-4.5,0.7c-5.3,0-8-2.8-8-8.5v-13.6h-4v-5.1h4V263.3z"/>
</g>
</svg>
