<?xml version="1.0" encoding="utf-8"?>
<!-- Generator: Adobe Illustrator 22.1.0, SVG Export Plug-In . SVG Version: 6.00 Build 0)  -->
<svg version="1.1" id="Capa_1" xmlns="http://www.w3.org/2000/svg" xmlns:xlink="http://www.w3.org/1999/xlink" x="0px" y="0px"
	 viewBox="0 0 18.6 60.8" style="enable-background:new 0 0 18.6 60.8;" xml:space="preserve">
<style type="text/css">
	.st0{fill:#FFFFFF;}
</style>
<g>
	<path class="st0" d="M9.9,58.9c-0.2,0-0.3-0.1-0.3-0.4V3.3c0-0.5,0.1-0.9,0.3-0.9s0.3,0.4,0.3,0.9v55.2
		C10.2,58.9,10.1,58.9,9.9,58.9z"/>
	<path class="st0" d="M17.7,10.6c-0.1,0-0.2,0-0.2-0.1L10,3l-7.5,7.5c-0.1,0.1-0.3,0.1-0.4,0c-0.1-0.1-0.1-0.3,0-0.4l7.8-7.8
		C10,2.2,10,2.2,10.1,2.2l0,0c0.1,0,0.2,0,0.2,0.1l7.6,7.7c0.1,0.1,0.1,0.3,0,0.4C17.8,10.5,17.7,10.6,17.7,10.6z"/>
</g>
</svg>
