<svg xmlns="http://www.w3.org/2000/svg" viewBox="0 0 765.67 549.23">
  <defs>
    <style>
      .cls-1, .cls-3 {
        fill: #4b7590;
      }

      .cls-1 {
        opacity: 0.1;
      }

      .cls-2 {
        opacity: 0.17;
      }

      .cls-4 {
        opacity: 0.21;
      }

      .cls-5 {
        opacity: 0.08;
      }

      .cls-6 {
        opacity: 0.2;
      }

      .cls-7 {
        fill: #fff;
      }

      .cls-7, .cls-8 {
        stroke: #4b7590;
        stroke-linecap: round;
        stroke-miterlimit: 10;
        stroke-width: 1.5px;
      }

      .cls-8 {
        fill: none;
      }

      .cls-9 {
        opacity: 0.45;
      }
    </style>
  </defs>
  <title>VS-1</title>
  <g id="Layer_2" data-name="Layer 2">
    <path class="cls-1" d="M32.51,102s6.61-28.81,102.3-41.67S249.31,38.48,317.9,41.05s106.83,6.41,164.21,9.62,86.91,7.88,128.14,6.5S722.9,60.5,738.69,71.29,762,88.44,766,115.52s16,31.48-1,52.35-14.66,9-17.09,31.82-.77,33.4,2.9,42.22S778,265.05,766,289.19s5.92,20.05-13.3,37.29-62.52,16.84-96.61,17.63-15.42-10.39-95.33-8c-3.3.1-16-5.31-23.06-19.59s-28.05-22.78-38.7-35.72c-13.58-16.48-13.17-36.13-17-39.78-11-10.44-14.47-8-28.5-7.25-9,.45-16.78,5.25-22.49,15-5.87,10,1.7,37.84-11,55.46-5,7-20.73,27.9-28.2,28.63-11.73,1.16-22.77,20.12-31.3,21.43C323,360,317,362.5,274.07,356.72s-19.51-28-55.95-32.72c-11-1.41-23.92,7.16-31.72,12.09-8.48,5.36-3-50.17-9.29-63.2-3-6.29-8.52-78-25.15-77.18-23.08,1.1-22,86.14-28,83.46-4.92-2.2-4.23,64.88-8.09,62.62-23.68-13.86-31-25.64-67.06,3.13-19,15.19-29.29-13.82-26.29-36S22,294.5,16,269s-9.76-27.23-6.76-75.56,3.27-27.13,8.27-46.18S32.51,102,32.51,102Z" transform="translate(-8.18 -40.61)"/>
    <g class="cls-2">
      <path class="cls-3" d="M540.14,372.25,566,361.5c3.58-1.5,8-4.39,11.91-4.81,3.43-.36,8.8,2.09,12.14,3.09a67.46,67.46,0,0,1,11.8,4.53c3.39,1.75,6.52,4.28,10.26,5.29,7.15,1.94,12-2.45,17.68-5.85,7-4.22,14.64,3.58,20.94,6.33a23.89,23.89,0,0,0,11.14,2.39c1.69-.12,3.13-.79,4.76-1,.7-.8,1.28-.91,1.75-.32.83.66,1.68,1.29,2.54,1.91a74.52,74.52,0,0,0,43.2,13.45l-5.18-9c-2.62,6-19.85-2.32-24.23-4.17-7.84-3.33-15.25-6.69-23.75-7.95-4.48-.67-8.81-1.29-13-3.06-3.38-1.42-6.65-3.21-10.24-4.08a22.92,22.92,0,0,0-10.83,0c-3.8.9-7.24,3-11.1,3.67-7.73,1.32-15.55-4.31-22.48-7a48.62,48.62,0,0,0-25-2.52c-8.69,1.37-16.58,5.31-24.8,8.26a129.21,129.21,0,0,1-27.34,6.61L517.68,379c6.72-1.23,12.71-4.27,19.08-6.59,6.79-2.46,13.43-2.82,20.6-2.45,15,.78,29.94,3,44.81,5.08,29.08,4,58.22,8.62,86.33,17.28,11.12,3.43,25.73,10.66,35.3.08,3.57-3.94,4.68-9.95,1.19-14.25-4.31-5.31-10.81-4.05-16.48-2.13-27.57,9.33-57.74,1.63-85.6-2.34-34.3-4.88-68.92-8.34-103.57-5.61-7.6.6-7.83,12.09,0,12,55.79-.64,111.44,3.89,167,8.46,7,.59,7.72-9.74,1.6-11.78l-30.76-10.27c-6.92-2.31-20.67-4.14-22.31-12.79l-7.38,7.38a7,7,0,0,1,5,4.65c2.47,7.27,14.06,4.15,11.57-3.19a19.54,19.54,0,0,0-13.42-13c-4.68-1.36-8.2,3.06-7.38,7.38,2.17,11.47,13.5,15.43,23.24,18.69l38.21,12.75,1.59-11.79c-55.56-4.57-111.21-9.1-167-8.46v12c28.16-2.22,56.39-.39,84.38,3.05,26.37,3.25,53.12,9.88,79.8,9.15a106.58,106.58,0,0,0,18.6-2.08,79.32,79.32,0,0,0,8.72-2.3,23.64,23.64,0,0,0,3.85-1.32,7.61,7.61,0,0,1,1.63-.4c-.44-2.38-1.08-2.8-1.93-1.28-2.83.51-3.74,1.43-7,.84a65.8,65.8,0,0,1-8.56-2.68q-9.78-3.27-19.74-5.91c-26-6.91-52.68-10.84-79.31-14.43-15.22-2.05-30.56-4.52-45.93-4.89a53.79,53.79,0,0,0-19.48,2.74c-6.66,2.34-12.88,5.58-19.88,6.87-6.56,1.21-5.14,12.64,1.6,11.79a144,144,0,0,0,28.78-6.42c8.48-2.92,16.72-7.37,25.67-8.75,10-1.53,18.35,2,27.29,5.85,7.83,3.41,15.71,5.49,24.08,2.68,3.56-1.2,7.23-3.38,11.1-3.06,4.09.32,8,2.89,11.72,4.38,8.35,3.35,17.51,3.09,25.94,6.38,11.74,4.57,40.62,21.61,48.58,3.26,1.74-4-.22-9-5.18-9a64,64,0,0,1-23.38-4.27,62.31,62.31,0,0,1-11-5.69c-2.89-1.87-5.7-5-9.14-5.77-3.85-.88-6.67,1.85-10.31,1.74-4-.13-7.74-3-11.05-4.9-6.63-3.85-14.09-7-21.7-4.09-3.08,1.16-5.47,3.17-8.19,4.93-3.62,2.35-4.68,1.34-8.31-.77-7.15-4.17-15-6.79-22.92-8.91-3.89-1-7.89-2.42-11.95-1.86s-7.79,2.71-11.48,4.25L537,360.68c-3,1.26-5.1,4-4.19,7.38.74,2.84,4.39,5.44,7.38,4.19Z" transform="translate(-8.18 -40.61)"/>
    </g>
    <g class="cls-2">
      <path class="cls-3" d="M72,432.36c-2.32-11.45,10.29-13.5,18.58-14.58a199,199,0,0,0,33.6-7.34l-6.78-2.75c2.46,3.36-10.75,4.3-12.41,4.51-6.65.84-13.38,1.46-20,2.74-11.55,2.25-23.64,8.19-25.32,21l11.79-1.6c-.79-3.06-2.51-8-.46-11,1.79-2.56,6.11-2.63,8.89-2.9a167,167,0,0,0,28.16-5c4.67-1.28,5.43-6.64,2.64-10a10.14,10.14,0,0,0-10.91-3.1c-6.36,1.85-5.33,12,1.6,11.78L104,414c7.7-.24,7.74-12.25,0-12l-2.59.08L103,413.87l-.76,0,2.65-10A138.28,138.28,0,0,1,84.36,408c-5.24.62-10.69.63-15.63,2.66-11.4,4.67-11.45,16.55-8.81,26.84,1.81,7.1,11,4.66,11.78-1.59.78-5.92,11.13-8.3,15.72-9.25,7.34-1.53,14.92-2.12,22.35-3.07,6.12-.79,12.55-1.6,16.79-6.59,3.61-4.25,4.6-10.72,1.19-15.38-1.54-2.12-4.06-3.6-6.77-2.76a192.94,192.94,0,0,1-21.82,5.5C92,405.72,84.4,405.91,77.38,408c-12.36,3.61-19.54,14.9-17,27.6,1.53,7.56,13.1,4.36,11.57-3.19Z" transform="translate(-8.18 -40.61)"/>
    </g>
    <g class="cls-4">
      <path class="cls-3" d="M258.05,401c2.83-6.62,7.72-6.91,14.11-6.32a15.23,15.23,0,0,0,8.28-1.14,11.19,11.19,0,0,0,3.22-2.41c1-1.06,1.53-3.21,2.66-4,4.25-2.83,13.13,5.05,17,6.71a45.15,45.15,0,0,0,19.3,3.62A47.79,47.79,0,0,0,341,393.11c6.24-2.88,10.55-7.89,16.2-11.57,12.59-8.22,29.41,3.17,42.35,5.23,4.12.66,8.28,1,12.44,1.33,2,.16,10.45-.24,11.66,1.5.27.38-.36,4-.43,4.68a62.11,62.11,0,0,1-1.16,6.63,78.33,78.33,0,0,1-4.31,13.2l7.38-4.19-89-23.48V398l30.58-5.55c4.93-.9,6-8.83,1.44-11a21.93,21.93,0,0,0-13.71-1.86c-6.63,1.08-5.14,12.31,1.6,11.78l12.25-1c6.39-.5,8.56-10.11,1.59-11.78l-3.15-.76-1.6,11.79,15.18.54L376.09,380a42,42,0,0,1-8,4.75c-5.53,2.62-2.63,11.22,3,11.18l6.1,0c3.48,0,7.33-3.89,5.78-7.6l-.14-.33c-1.37-3.28-3.8-4.71-7.38-4.19a6,6,0,0,0-4.31,3.27,6.18,6.18,0,0,0,.94,7.27c4.47,4.22,13,2.47,18.66,2.48l-4.24-10.25-3.28,3.5c-3.36,3.6-1.17,10.53,4.24,10.25L393,400l-1.59-11.78a13.24,13.24,0,0,0-7.34,4.33,6.05,6.05,0,0,0,5.84,10l9.9-2-4.62-11-5.47,3.79c-5.19,3.61-2.19,13.48,4.63,11A81.41,81.41,0,0,1,406.18,401l-7.6-5.79.31,4.93c.25,4.17,5,8,9,5.18l8-5.56-9-5.18-.19,7.28c-.12,4.91,5.11,7,9,5.18a14.09,14.09,0,0,0,6.72-6.5l-11-4.62-1.09,3.94c-1.76,6.33,8.25,11,11,4.62a52.62,52.62,0,0,0,3.76-12.51H413.55l1.28,8.13,11.57-3.19c-2.26-12.77-16.17-12.65-26.14-12.49-11.52.19-21.59-8.49-33.4-5.4-5.32,1.39-10.09,5.64-9.17,11.54.86,5.53,6.05,8.15,10.94,9.57,9.11,2.63,21.75.47,29,7.54l5.84-10-17.21-4.37c-4.67-1.19-10.35-1.94-14.19-5.09a15.55,15.55,0,0,1-5.36-9.75c-.12-.93.86-5.94.62-6.33l-3.1,2.19,1.33.86c.61.93,2.28,1.75,3.12,2.5,6.91,6.14,12.61,13.52,21.5,16.88,8,3,17.39,2.33,23.51-4.13,5.3-5.61-3.17-14.11-8.49-8.49-8,8.43-19.8-4.82-25.14-10-3.61-3.53-8-7.92-12.94-9.35-5.59-1.6-10,1.72-11.55,7-2.77,9.51.66,20.55,8,27.11,4.45,4,10,5.74,15.67,7.2,7,1.81,14,3.56,21,5.34,5.71,1.45,10.21-5.76,5.84-10-5.63-5.49-12.68-7.39-20.27-8.39-3.28-.44-6.59-.7-9.85-1.29-1.58-.29-4-1.45-5.5-1.36-1.71-1.09-2.28-.12-1.69,2.9a8.77,8.77,0,0,1,2.56-.7c7.31-.95,15.17,4.41,22.31,5.6,4.58.76,9,.12,13.58.17,3.13,0,6.95.37,7.59,4,1.35,7.64,12.77,4.33,11.57-3.19l-1.28-8.13c-.91-5.72-10.68-5.74-11.57,0A40.8,40.8,0,0,1,411,398.4L422,403l1.1-3.94c1.78-6.43-7.76-10.76-11-4.62a3.59,3.59,0,0,1-2.41,2.19l9,5.18.19-7.28c.11-4.32-5.27-7.8-9-5.18l-8,5.56,9,5.18-.31-4.93a6.11,6.11,0,0,0-7.59-5.79,82.72,82.72,0,0,0-11.86,3.39l4.62,11,5.47-3.8a6,6,0,0,0-4.63-11l-9.9,2,5.84,10a2.06,2.06,0,0,1,2-1.25c6.54-1.47,5.19-12.14-1.6-11.79l-5.46.29,4.25,10.24L395,395c3.51-3.75,1.08-10.24-4.24-10.24h-6.43c-1.28,0-5.95-1-3.75,1l.94,7.27.21-.43-3.58,2.76.51-.07-7.38-4.2.14.33,5.79-7.59-6.1,0,3,11.18a54.87,54.87,0,0,0,10.42-6.63c4.37-3.42.44-10.07-4.25-10.24l-15.18-.54c-6.73-.25-8.19,10.2-1.59,11.78l3.15.76,1.6-11.79-12.25,1,1.59,11.79a7.61,7.61,0,0,1,4.46.65l1.43-11L333,386.44c-6,1.08-5.44,10.13,0,11.57l89,23.48c3.44.91,6.11-1.17,7.38-4.19,3.41-8.09,6.09-17.3,6.15-26.16.05-8.34-4.93-12.78-12.83-13.93-9-1.32-18.13-1.11-26.93-3.54-8.15-2.25-15.85-5.67-24.33-6.62-8.25-.92-16.11.86-22.74,5.93-6.3,4.83-11.43,9.69-19.4,11.63A34.14,34.14,0,0,1,308,383c-7.31-3.14-13.11-9.05-21.67-8.07a13.86,13.86,0,0,0-10.09,5.7c-1.28,1.84-1,2.38-3.39,2.2a62.66,62.66,0,0,0-6.27-.56A21.48,21.48,0,0,0,247.69,395c-3,7,7.33,13.15,10.36,6.06Z" transform="translate(-8.18 -40.61)"/>
    </g>
    <g class="cls-5">
      <path class="cls-3" d="M480.72,535.58a438.43,438.43,0,0,0,69.48,28.23L551.8,552c-5.81-.17-13.44-2.25-16.85,3.7-2.74,4.8-2.43,10.6-.27,15.53,4.76,10.86,16.06,14.21,27.08,14.37,14.22.21,28.11-.38,42.27,1.71,9.94,1.47,21.65,4.95,31.14-.26,9.76-5.37,10.75-17.63,4.45-26.11-3.51-4.73-8.58-7.52-14.08-9.36-2.67-.89-5.42-1.38-8.15-2-2.22-.53-1.1.48-1.17-1.63-.05-1.63-1.53-3.86-2.39-5.18-7.4-11.27-20.92-10.33-32.61-12.19s-21.61-8.35-32.13-13a69.87,69.87,0,0,0-19.45-5.94c-3.58-.46-7.17-.53-10.77-.82-3.17-.26-6.34-1.29-9.51-1.36-6.29-.16-11.43,5.41-9.05,11.65a11.8,11.8,0,0,0,5.58,6.09c2.13,1.12,6.34.79,7.82,2.42l1.21-9.42c-6.49,4.91-14.87,6.62-22.49,3.15l-3,11.18A36.5,36.5,0,0,1,514,542.57c8.35,6.54,14.72.35,22-4.67,5.14-3.55,2.88-10.49-3-11.18a52,52,0,0,0-14.58.52c-7.2,1.19-4.55,11.12,1.6,11.79a20.29,20.29,0,0,0,14.58-4c3.69-2.81,4-7.59,0-10.36s-8.14-3.19-12.72-2.39c-6.79,1.19-5,11.75,1.6,11.78l11.41.05-5.18-9a27.76,27.76,0,0,0-3.43,9.52c-.5,3.2.78,6.46,4.19,7.39a28.39,28.39,0,0,0,10.69.93l-3-11.18a16.22,16.22,0,0,0-6.43,5.95c-2.27,3.44.13,7.62,3.58,8.82A28.39,28.39,0,0,0,548,547.9c7.52-.89,7.77-12.72,0-12a14.21,14.21,0,0,0-9.78,4.47c-3.51,3.77-1.08,10.23,4.24,10.25q9.81,0,19.6-.64l-3-11.18-8.55,6.05c-5.12,3.61-2.22,13.54,4.62,11a31.78,31.78,0,0,0,11.3-7c3.66-3.55,1-10.42-4.24-10.25a23.89,23.89,0,0,0-19.51,10.86c-2.29,3.36.15,7.69,3.59,8.81a40.1,40.1,0,0,0,16.49,1.87l-1.6-11.79c-11.17,2.4-17.5,13.43-15.55,24.31.44,2.46,3.35,4.53,5.79,4.41l39.14-2,18.59-.94c1.64-.09,3.27-.18,4.9-.25,3.07-.14,3.4.77,2.66-2.71s-.37-2.32-3.07-2.1a14.85,14.85,0,0,1-5.4-.83L605,579.75a52.14,52.14,0,0,0,24.89-.57,6.11,6.11,0,0,0,4.19-7.38c-2-7.69-9.13-9.87-16-11.45-2.29-.52-5.77-.89-7.43-2.77-1.23-1.41-1.59-3.91-2.52-5.54a17.12,17.12,0,0,0-4.44-5c-7.76-6-19.27-6.8-28.46-9.43a267.9,267.9,0,0,1-34.73-12.54c-6.93-3.06-12.73,6.13-6.06,10.36A408.46,408.46,0,0,0,596,567.41l3.19-11.57a293.15,293.15,0,0,0-43.12-4.71c-7.17-.25-7.6,9.52-1.59,11.78a50.08,50.08,0,0,0,23.54,2.93l-3-11.18c-6,4.35-13.94-1-19.47-3.93L531.8,538.18c-6.83-3.6-12.9,6.76-6.06,10.37,9.92,5.23,19.72,10.92,29.87,15.69,8,3.76,17.7,6.45,25.48.78,4.2-3.06,3.56-11.94-3-11.18a42.27,42.27,0,0,1-20.35-2.5l-1.6,11.79A271.71,271.71,0,0,1,596,567.41c7.73,1.42,10.24-8.63,3.19-11.57a390.91,390.91,0,0,1-58.77-30.73l-6.06,10.36A297.76,297.76,0,0,0,565,547.12q7.88,2.48,15.88,4.48c4.4,1.1,9.32,1.68,13.41,3.7,3.87,1.91,4,5.26,6.14,8.6a16.34,16.34,0,0,0,7.76,6,62.71,62.71,0,0,0,9.22,2.57,25.53,25.53,0,0,1,3.64,1,6.29,6.29,0,0,1,.94.46c1.07.74.18-.36.54,1l4.19-7.39a38.78,38.78,0,0,1-18.51.58c-7.52-1.6-10.63,9.33-3.19,11.57,7.16,2.16,18.71,2.17,21.83-6.31a8.48,8.48,0,0,0-3.19-9.83c-3.13-2.22-7-1.93-10.62-1.74L551.37,565l5.78,4.4c-.84-4.72,2.83-8.61,7.17-9.54,6.51-1.4,5.2-12.44-1.59-11.79a31.41,31.41,0,0,1-13.3-1.44l3.59,8.82a11.15,11.15,0,0,1,9.14-4.92l-4.24-10.24a17.45,17.45,0,0,1-6,4l4.62,11,8.56-6.05c4.41-3.12,3.44-11.63-3-11.18s-13.06.66-19.6.64l4.24,10.24a1.67,1.67,0,0,1,1.3-1v-12a20.24,20.24,0,0,1-9.57-1l3.59,8.82a3.36,3.36,0,0,1,2.12-1.65c5.14-2.57,2.91-11.81-3-11.18a19,19,0,0,1-7.5-.51l4.19,7.38A18.94,18.94,0,0,1,540,531.1a6.06,6.06,0,0,0-5.18-9L523.44,522,525,533.81c1.43-.25,2.35.4,3.47,1.18V524.63A10.68,10.68,0,0,1,520,527l1.59,11.78a41,41,0,0,1,11.39-.09l-3-11.18-5.56,3.84-2.79,1.92q-2.15,1.17.34.32a46.52,46.52,0,0,0-32.52-11.1c-5.46.21-8.8,8.55-3,11.18,11.32,5.16,24.51,4.49,34.61-3.15,3.16-2.39,4-6.3,1.22-9.42-2.06-2.27-6-4.56-9.26-4.26-2.19.21-.3-1.85-2.59,2.15-1.74,3-1.77,2.34.7,2.8a73.61,73.61,0,0,0,7.82,1c9.2.71,17.13,1.9,25.61,5.77,7.68,3.5,15.06,7.64,23,10.62,8.65,3.26,17.34,3.06,26.26,4.76,3.48.67,7.62,1.95,9.82,5,2.59,3.56,1.26,7.87,5.6,10.51,6.76,4.12,17.39,1.69,21.72,10,4,7.73-5.7,8.59-10.85,8.26-9-.56-17.85-2.82-26.83-3.59-11.07-1-22-.06-33.08-.5-5.67-.22-19.57-4.45-14.1-12.86l-5.18,3,11,.32c6.92.2,7.94-9.82,1.59-11.78a420.94,420.94,0,0,1-66.62-27c-6.86-3.5-12.94,6.85-6,10.36Z" transform="translate(-8.18 -40.61)"/>
    </g>
    <g class="cls-6">
      <path class="cls-3" d="M496.72,411c0,28-2,56.09-3.09,84-.3,7.73,11.7,7.71,12,0,1.09-28,3.08-56.07,3.09-84,0-7.73-12-7.74-12,0Z" transform="translate(-8.18 -40.61)"/>
    </g>
    <g class="cls-6">
      <path class="cls-3" d="M463.25,413.3c-10.56,10.57-11.51,25.34-11.15,39.47.4,16-1.43,30.88-7.63,45.78-3,7.12,8.64,10.22,11.57,3.19a107.07,107.07,0,0,0,8.22-41c0-13-2.67-28.76,7.47-38.91,5.47-5.47-3-14-8.48-8.49Z" transform="translate(-8.18 -40.61)"/>
    </g>
  </g>
  <g id="Patterns">
    <g>
      <path class="cls-7" d="M208.11,332.87a6.51,6.51,0,0,1,1.2-1.6c5.82-4.14,11.66-2.72,17.6-.13,3.43,1.49,6.05,4,9,6.18.53.39,1,.85,1.46,1.24l7.21-10.85.49.32-7.2,11.23c1.65,1.48,3.07,3.24,4.91,4.28s3.81,1.62,4.87,3.52l-.4.52c-4.72-3.77-9.52-7.42-14.11-11.33a30.68,30.68,0,0,0-15.57-6.72c-3.53-.56-6.61,1.27-9.44,3.31Z" transform="translate(-8.18 -40.61)"/>
      <path class="cls-7" d="M210.71,431.48c-2.61.59-9.08-1.62-10.13-3.2-1.57-2.37-2-4.49-.93-5.71C200.61,428.71,205.69,429.83,210.71,431.48Z" transform="translate(-8.18 -40.61)"/>
      <path class="cls-7" d="M202.67,339.37c-5.11,3.59-10.22,7.19-15.35,10.75-.16.1-.57-.16-.92-.27C189.86,346.19,196.2,342,202.67,339.37Z" transform="translate(-8.18 -40.61)"/>
      <path class="cls-7" d="M223.21,434.77c2.75-.24,4,.44,4,2.19s-1.12,2.56-3.91,2.43a5.82,5.82,0,0,1-2.85-.71,2.77,2.77,0,0,1-1.2-2.18c.18-.69,1.21-1.3,2-1.68A5.05,5.05,0,0,1,223.21,434.77Zm.17.7c-.35,0-.78-.13-1.06,0a22.56,22.56,0,0,0-2,1.37,8,8,0,0,0,1.43,1.61,4.19,4.19,0,0,0,1.88.48,2,2,0,0,0,2.45-2.11c0-1.61-1.24-1.39-2.31-1.37Z" transform="translate(-8.18 -40.61)"/>
      <path class="cls-7" d="M193,428.94c1.42,3.22,4.15,4.11,7.23,4.46.5.05.94.5,1.42.73.83.38,1.68.73,2.56,1.12-.84.89-1.87.45-2.91.07-1.22-.44-2.43-.93-3.68-1.29C194.9,433.26,192.84,431.2,193,428.94Z" transform="translate(-8.18 -40.61)"/>
      <g>
        <path class="cls-7" d="M422.85,311.09c-2,2.09-4,4.12-5.86,6.31a17.55,17.55,0,0,0-2.33,4c-.78,1.68.35,2.58,1.56,3.61a28.91,28.91,0,0,1,3.39,3.91c.1.13-.15.54-.27.91a48,48,0,0,1-3.74-3.3c-1.75-1.86-3.72-1.61-5.58-.56a64.53,64.53,0,0,0-8,5.19c-3.06,2.4-3.33,4.34-2,8,1,2.79,2.49,5.19,5.3,6.61a3.55,3.55,0,0,1-4.3-1.41,23.21,23.21,0,0,1-3.58-7.56c-.76-3.61,2.11-5.84,4.72-7.59,3-2,6.41-3.52,9.59-5.33a2.2,2.2,0,0,0,.87-1.54c.19-3,2-4.92,3.93-6.87,2.35-2.4,4.51-5,7.07-7.19a27.11,27.11,0,0,1,6.11-3.34c.93-.44,1.11-.78,1.15-1.86a53,53,0,0,1,1-9.59c.59-2.72,1.91-5.27,5.65-5.39a18.1,18.1,0,0,1-1.93-2.32,27.69,27.69,0,0,1-2.49-4.84,59.29,59.29,0,0,1-2.35-8.33c-.84-4.42-1.48-9,.08-13.31a95.62,95.62,0,0,1,5-10.25,22.51,22.51,0,0,1,9.85-10c2.22-1.15,4.84-1.5,7.26-2.25a20.09,20.09,0,0,1,14.63.92c4.32,2,9.15,3,12.67,6.52a15.74,15.74,0,0,1,2.54,3.22c1.8,3.07,3.61,6.14,5.12,9.34a25.62,25.62,0,0,1,2.19,10A20.05,20.05,0,0,1,487.82,277c-.5,1-1.12,1.9-1.72,2.91a72.28,72.28,0,0,1,7.71,2A21.48,21.48,0,0,1,504.67,291c1.47,2.39,2.63,5,4,7.45a1.45,1.45,0,0,0,.68.56c3.95,1.59,7,4.44,10.07,7.22,1.26,1.13,3.18,1.49,4.55,2.54,2.12,1.63,4,3.63,6,5.33,3.08,2.51,3.67,6.16,4.71,9.63a1.58,1.58,0,0,0,.61.68c5,3.67,4.63,10.26,2.46,14.44a49.32,49.32,0,0,1-9,13c-2,2-3.81,4.15-5.7,6.24a3.74,3.74,0,0,1-.79.84,6.14,6.14,0,0,0-2.8,3.31c-.68,1.65-2.22,2.94-3.57,4.62a39.49,39.49,0,0,0,6.09-1.44c6.76-2.75,13.39-5.86,20.19-8.49,4.16-1.61,8.56-2.6,12.85-3.89,2.46-.75,4.87-1.77,7.38-2.27,5.83-1.19,10.15-5,14.75-8.25,1-.68,1.43-.88,2.25.09s1.8,1.54,2.64,2.37c2.11,2.07,5,1.72,7.53,2.39a29.83,29.83,0,0,0,6.92,1.17c2.07.05,3.26,1.2,4.67,2.31a7.86,7.86,0,0,0,2.75,1.46,15.11,15.11,0,0,1,8.56,5.57c1.11,1.44,2.28,1.63,3.71.48,2.83-2.27,5.55-4.7,8.49-6.82a27.47,27.47,0,0,1,6.06-3.21c.72-.29,1.84.39,2.79.87a9.13,9.13,0,0,0,5.51,1,6.33,6.33,0,0,1,5.82,1.46,65.82,65.82,0,0,0,13.08,8.47,4.73,4.73,0,0,0,5.11-.33c2.11-1.3,4.06-2.88,6.19-4.15a2.47,2.47,0,0,1,2.31.1c3,2.94,5.85,6,8.71,9.07,2,2.15,4.42,2.74,7.32,2.7,1.84,0,4.22.35,5.45,1.51,5.44,5.14,12,6.05,19,5.85a36.08,36.08,0,0,1,5.3.19c-6.7.57-13.46,1.49-19.91-1.29a16,16,0,0,1-3.39-2.25c-2.16-1.69-4.23-2.95-7.32-2.65a8.56,8.56,0,0,1-7.91-3.23,73.88,73.88,0,0,0-6.34-6.67c-2.19-2.18-2.21-2.13-5-.44a34.58,34.58,0,0,0-5.06,3.41l7.83,1.72c-5.54.52-10.21-1.39-14.79-3.57a46.72,46.72,0,0,1-11.93-7.71,3.53,3.53,0,0,0-3.77-.75,9.23,9.23,0,0,1-7.24-1.12,3.29,3.29,0,0,0-3.16-.11c-5.3,2-8.89,6.2-13.63,10.05l8,1.64c-.34.24-.55.49-.73.48-4-.24-7.85-.51-11.18-3.18-1.28-1-3.07-1.44-4.57-2.36l2.59.73a5.62,5.62,0,0,0-5-3.28,1.44,1.44,0,0,1-.91-.15c-3.17-2.53-6.74-1.67-10.07-.82-4.45,1.12-7.82-.73-11.14-3.11-.28-.2-.3-.75-.57-1.49,2.6,1.21,4.78,2.36,7.06,3.23a7.42,7.42,0,0,0,3.42.21c2.34-.3,4.65-.81,7-1.24-.76-1.5-2.49-1.45-4-1.68-3.8-.57-7.67-.84-11.42-1.69-1.67-.39-3.2-1.74-4.58-2.91-1-.82-1.61-1.05-2.71-.31-3.55,2.4-6.71,5.4-11,6.56-4.83,1.29-9.57,2.94-14.41,4.16-7,1.79-13.33,5.35-20,8-3.94,1.54-7.85,3.2-11.9,4.36-1.39.4-3.57,1.44-4.84-.86-.1-.19-.85,0-1.44,0,.86,3.34-2.46,4.33-3.42,6.88,2,5,1.44,10.56,1.78,16,.14,2.2.26,4.41.37,6.61a6.52,6.52,0,0,1-2.14,5.13c-.89.86-1.69,1.83-2.53,2.75l.05-.06c-3.36,2.09-6.58,4.53-10.64,5.13-5.48.8-11,1.44-16.47,2.22-2.54.37-5,1-7.58,1.35a62,62,0,0,1-9.66,1c-5.48-.14-10.95-.75-16.42-1.18a1.53,1.53,0,0,1-1.07-.45c-1.64-2.47-2.95-5.08-2.88-8.19l.41,1.07c-.56-5.89-1.14-12.05-1.74-18.26-2.65-.18-2.65-.18-6.14-3.87-.23,2-.4,4-.67,5.92-.81,5.75-1.47,11.54-2.55,17.24-.71,3.73.89,6.69,2.72,9.38,2,3,4.77,5.42,7.21,8.09a4.25,4.25,0,0,1,.93,1.2,19.82,19.82,0,0,1-9-7.89l-.66.06a39,39,0,0,0-.78,6c.11,5.44.63,10.87.68,16.3.06,6.25,5,9.3,10.62,9.79a8.78,8.78,0,0,1,2.14.24,7.66,7.66,0,0,1-5.91.37c-6-1.67-8.4-6-8.25-10.77.15-4.95-.5-9.93-.64-14.89a27.5,27.5,0,0,1,.56-5.71,10.59,10.59,0,0,1,1.37-2.63c-2.36-3.38-2.9-7.37-2-11.88,1.1-5.73,1.58-11.57,2.35-17.37.13-1,.34-1.93.54-2.9.71-3.46-.77-5.36-4.24-5.86a6.38,6.38,0,0,1-3.59-1.64c-.93-1-1.71-.93-2.87-1-2.57-.13-5.11-.73-7.68-1-1.31-.15-2.66,0-4-.09-3.55-.25-7.1-.57-10-2.94a18.26,18.26,0,0,1-6.66-12.38c-.66-5.24-1.13-10.5-1.56-15.75-.19-2.37.9-3.79,3-4.25.42-.1.91.12,1.62.55-3.26.47-3.1,2.69-2.92,4.78.52,6.13.5,12.37,2.59,18.23,1.66,4.68,5.5,9.46,11.16,9.82a28.64,28.64,0,0,1,8.8,1.73,11.71,11.71,0,0,0,8.14-.29c0,.14.13.43.24.8l1.72-.41c2-5.78,4.28-11.29,8.41-15.81l.7.25a6.11,6.11,0,0,1-.65,1.77A35.86,35.86,0,0,0,429.1,374l-1.49,1c.84.37,1.41.66,2,.87a3.55,3.55,0,0,0,3.55-.69,16.87,16.87,0,0,0,2.43-2.88,19.37,19.37,0,0,0,1.77-4.61,15.75,15.75,0,0,0,.78-5.51c-.48-3.89-1.42-7.71-2.21-11.72l-13.71-2c4-2.28,6.64-5.56,9.32-8.82a5.72,5.72,0,0,1,1.55-1l.66,1.38.45,0c0-4.61-.23-9.23.07-13.82s1.11-9.32,1.68-13.8a36.56,36.56,0,0,1-2.78-3.28,46,46,0,0,1-2.27-4.1,16.31,16.31,0,0,0-3.64,3c-1.15,1.3-2.9,2.08-4.39,3.08Zm84.59,8.4a5.21,5.21,0,0,0,.47-1.43c0-5.15.06-10.29,0-15.44a9.16,9.16,0,0,0-.4-3.14,30.92,30.92,0,0,0-7-11.35c-3.87-3.86-8.1-6.5-13.86-5.45a3.41,3.41,0,0,1-1.77-.1c-2.28-.91-4.49-.34-6.59.44-3.76,1.41-7.49,2.92-11.13,4.61a11.84,11.84,0,0,0-3.9,3c-5,5.81-7.17,12.83-8.15,20.28-.34,2.62-.31,5.29-.5,7.93-.54,7.79-1.58,15.59-1.56,23.38,0,11,.83,22,3.44,32.74a4.93,4.93,0,0,1-.12,1.56c-.79-.34-1.3-.74-1.42-1.23a53.23,53.23,0,0,1-1.3-6.82c-.77-8.7-1.52-17.4-2-26.12a83.53,83.53,0,0,1,.32-12.25c.81-8.53,1.75-17,2.89-25.53a29.79,29.79,0,0,1,6.89-14.7c3.11-3.81,7.88-5.33,12.3-7.21.85-.36,1.76-.58,2.64-.86-6.08-.48-12-.25-17.69,1.9-4.46,1.68-8.72,3.69-11.72,7.47a93,93,0,0,0-5.32,8.26c-.78,1.23-1.68,2.42-1,4,.11.27-.28.78-.5,1.13a8.44,8.44,0,0,0-1.06,1.56,88.9,88.9,0,0,0-3.84,25.65,99,99,0,0,0,1,10.64h2.29c-.41-1.35,1.21-4.67,2.47-5a1.15,1.15,0,0,1,.94.11c.81.75,2,1.46,2.23,2.41a25.86,25.86,0,0,1,1,6.43c0,1.78-2.12,2.53-3.71,1.62a5.85,5.85,0,0,0-2.64-.55,10.67,10.67,0,0,0-2.4.53c3.69,11.71,3.07,24.17,6.67,35.89a7.56,7.56,0,0,0-.51,2.31c.39,4.81.89,9.61,1.38,14.4.24,2.36.53,4.71.83,7.05s1.58,3.42,3.93,3.66l8.26.84a19,19,0,0,0,3.74.29c4.24-.45,8.46-1.09,12.69-1.59,4.54-.55,9.11-.84,13.61-1.58,4.09-.68,8.14-1.72,12.15-2.79s6.89-4.13,9.82-6.9a4,4,0,0,0,1-2.71c-.05-4.18-.19-8.36-.48-12.53-.23-3.45,0-7-1.68-10.29-5.28,2.58-10.91,3.19-16.56,3.71-5.49.51-11,1.09-16.46,1.57-5.08.45-10.17.83-15.26,1.22-3.81.29-7.62.56-11.43.78-1.62.09-3.24,0-4.86,0l-.11-.51a10.48,10.48,0,0,1,2.13-.61c5.14-.33,10.28-.58,15.42-.89,4-.23,7.94-.42,11.9-.79,3-.28,5.89-.89,8.84-1.2,2.33-.24,4.69-.23,7-.39,1.25-.08,2.49-.32,3.73-.42,4.42-.39,8.71-1,12.83-2.95a5.85,5.85,0,0,0,3.6-6.62,27.9,27.9,0,0,1-.56-4.53c-.16-7.86-.26-15.73-.36-23.6,0-1.53.13-3.06.08-4.58-.15-4.94-.34-9.87-.52-14.8Zm-63.21-27.6c2.64-2.24,4.76-4.43,7.25-6.05a31.22,31.22,0,0,1,15.6-5.22c4.84-.22,9.69-.26,14.53-.49.95,0,2.3-.32,2.72-1a24.47,24.47,0,0,0,2.76-5.68c1.59-4.8,1-9.66-.61-14.27-1.06-3.06-3.15-5.75-4.54-8.73A17.06,17.06,0,0,0,471,241.16c-5.09-1.63-10.23-3-15.58-3.18-1.62,0-3.29.86-4.9,1.42-.8.28-1.51.84-2.32,1.1-.58.19-1.41-.14-1.87.16-1.76,1.12-3.77,2.13-5.05,3.69a59.64,59.64,0,0,0-6.32,9.29c-2.59,4.8-4.58,9.82-2.91,15.52a57.11,57.11,0,0,1,1.84,8.25C434.85,284.2,439.75,288,444.23,291.89Zm66.66,38.79c.72.32,1.15.38,1.21.56.74,2.17,1.55,4.34,2.08,6.57a3.77,3.77,0,0,1-.58,2.63c-1,1.4-2.24,2.56-3.23,3.93a2.24,2.24,0,0,0-.33,1.95c1.36,2.28,2.84,4.48,4.39,6.64,1.08,1.51,2.45,2.82,3.48,4.36.92,1.37,1.8,1.65,3,.45,3.42-3.55,7.12-6.89,10.13-10.77a41.38,41.38,0,0,0,5.94-10.52c1.48-3.88,1-8.12-2.9-10.65l-4.16,3.76-.41-.46,1.37-1.57c1.81-2.06,2.25-4.08,1.35-7-1.06-3.41-3.72-5.2-5.78-7.59a35.38,35.38,0,0,0-4.84-4c-2,6-2.73,7.52-4.06,8.41.67-2.31,1.45-4.72,2-7.18a2.56,2.56,0,0,0-.63-1.88,16.62,16.62,0,0,0-2.45-2.29c-2.26-1.84-4.56-3.63-6.8-5.39v42.45h.57a14,14,0,0,1,1.21-2.05,4.38,4.38,0,0,0,.84-4.78C511.68,334.66,511.42,332.89,510.89,330.68Zm-1.05,17.87c0,4.1.15,7.85,0,11.58-.12,2.38,1.32,3.53,3.65,4.51,1.38.58,3.3-.48,4.16-2.18.28-.54.64-1.4.41-1.76C515.42,356.71,512.72,352.8,509.84,348.55Zm-84-.79,10.35,1.89c-.52-.7-.84-1.47-1.1-1.45-2.83.24-4.32-1.54-5.64-3.69Zm6.83-43.55c1.88-1.62,3.83-2.19,4.85-4.39L433,301.55l-.27-.67c1.09-1.56,4.25-.54,4.47-3.58l-4.93,1.31C432.38,300.19,432.5,301.94,432.66,304.21Zm5.93-3-5.27,4.15,1,2.23C435.8,305.38,439.17,304.84,438.59,301.16Zm.87,40.92.38.49c2.08-.91,3.16-.35,2.92,2.26,1.72-3.12,1.61-3.56-1.31-5.82ZM444,293.37c-.62-.38-1.14-.64-1.61-1a1.64,1.64,0,0,0-2.51.43,4.6,4.6,0,0,0-.51,1.1l.24.17.73-.65,1.86,2.84Zm-2.94,88.18c-.29-2-.46-4-2.78-4.33l-1.48,2.07Zm-4.19-85.1.19-.64-3.77-2.09c-.2,1.11-.36,2.06-.59,3.36Zm-.16,77.43,2.81.5-.81-5.64Zm-4.15-28.94-.54,0c0-.48.09-1,.11-1.45s0-1.12,0-1.68h-.69a9.54,9.54,0,0,0,.09,3.17c.24.65,1.31,1,2,1.46L434,346c-.09-.69-.19-1.38-.34-2.53Zm7-44.53c2.07-3.15,1.94-3.64-.87-4.17C439,297.56,439.25,298.82,439.58,300.41Zm-2.41-6,.54-.55-2.7-3.31-1,1.62Zm.54,12-2.44,2.37,1,1.89C436.84,309,437.37,307.41,437.71,306.42Zm-.91-17.23-.24.63L437.8,292l2.25-1.48Z" transform="translate(-8.18 -40.61)"/>
        <path class="cls-7" d="M507.17,404a46.21,46.21,0,0,1,1.48,4.44c.38,1.67.5,3.4.73,5.1a2.34,2.34,0,0,1,0,.79c-1.42,6.16.74,12.2.64,18.31-.08,4.13.52,8.39-.35,12.34a58.64,58.64,0,0,0-1.5,10.72c-.2,5.75-1.1,11.47-1.62,17.21-.55,6-1,12-1.51,18.05a7.82,7.82,0,0,0,0,2.16c.44,3.32,1.27,6.63-.67,10.19,1.38-.75,2.31-1.35,3.31-1.77,2.3-.94,3.9-.23,4.55,2.2,1.7,6.37,4.54,6.4,9.09,8.46-4.56.47-8.92-2.68-9.79-5.68-.2-.69-.66-1.3-.84-2-.58-2.26-1.5-2.92-3.82-1-3,2.48-5.69,5.36-9.49,6.69a2.22,2.22,0,0,0-1,.62c-2.51,3.21-5.78,2-8.7,1.2a29.4,29.4,0,0,0-8.16-1.34,56.18,56.18,0,0,1-8.46-.87c-1.92-.32-2.76-1.87-3.07-3.7-.51-3-1.26-3.31-3.68-1.5-1.5,1.13-2.95,2.35-4,3.17-.11-2,2.78-5.13,6.82-6.31a24.81,24.81,0,0,1,0-3.85,64.5,64.5,0,0,1,1.74-8.51c.17-.6,1.89-1.22,2.75-1.05a45.41,45.41,0,0,1,6.11,2.09c-1,.33-1.64.78-2.21.7a15.37,15.37,0,0,1-3.2-1c-1.32-.52-2-.49-2.59,1.19a21.12,21.12,0,0,0-.61,12.5c1,4.09,3.09,5.73,7.27,5.88,2.39.08,4.78,0,7.17.05a17.33,17.33,0,0,1,2.85.68c2.17.46,4.34.92,6.52,1.31.27.05.62-.3.92-.49.87-.58,1.72-1.19,2.61-1.74,2.66-1.66,5.34-3.29,7.54-4.64.12-2.66.21-4.73.31-6.8-1.59,2.32-3.56,3-6.29,3.06a43.29,43.29,0,0,1-15.45-2.1c-4.16-1.4-5.95-4.51-4.19-8.74,2.19-5.29,1.19-10.51,1-15.8-.13-3.56-.1-7.13-.42-10.67a50.39,50.39,0,0,0-1.42-6.46c-.06-.25-.27-.62-.18-.72,1.21-1.27,0-2.38-.19-3.55a90.28,90.28,0,0,1-1.45-10.4c-.2-5.24.1-10.5.15-15.74,0-4,0-8.1,0-12.15a13.65,13.65,0,0,1,.35-2.06l.69,0c.06,1,.19,2,.18,3-.08,6.37-.38,12.73-.23,19.09.17,7.3-.27,14.69,2.94,21.66,1.49,3.26,2.85,4.64,6.46,4.59h2.31c-2,1.94-4.7,1.67-8.45-.57-.54,10.67,2.81,21.47-1,32.63,3.37.45,6.5.86,9.63,1.29a14.08,14.08,0,0,1,3.54.55c3.86,1.62,7.54,1.13,11.35-.78,1-14.1,3.25-28.31,3.55-43.29-1.79,1.34-3,2.3-4.29,3.17-.22.15-.67-.06-1-.1.12-.27.15-.69.35-.79,5.15-2.62,7.07-6.89,6.69-12.52-.47-6.8-.73-13.62-1.09-20.42a7.67,7.67,0,0,0-.18-.93l-4.58,3c1.59-1.92,3.13-3.25,4-4.93,1.59-3.16.67-6.53.19-9.84a23,23,0,0,1-.06-3.33Zm-16,95.11.14-.75-6.28-1.6-.2.77Zm-11.41-5.48-.5.67,4.25,3.12.45-.6Zm4.83,1.18-.24.57,4.59,1.15.22-1Z" transform="translate(-8.18 -40.61)"/>
        <path class="cls-7" d="M434.45,489.9a93.16,93.16,0,0,1-1.59-9.95c-.36-6.43-.36-12.88-.49-19.33-.08-3.82-.15-7.64-.18-11.47a17.67,17.67,0,0,1,.32-2.49l.54-.1c.19.39.64.88.53,1.16-1.19,3.11.35,6.15.21,9.21-.12,2.68-.49,5.34-.57,8-.06,1.7.35,3.42.31,5.13a68.53,68.53,0,0,0,2,18.49c.13.52.45,1.29.83,1.39,2,.54,1,1.25-.26,2.31,7.26,1.5,14.1,3.08,20.92,2.88,8.21-15.85,10.22-32.43,7-49.46-.69.62-1.56,1.47-2.5,2.22a11.09,11.09,0,0,1-3.28,1.91c.22-.25.39-.6.67-.73,3.68-1.75,4.34-5.23,4.45-8.65A19.93,19.93,0,0,1,468,428.35c3.48-4.32,6.17-8.73,6-14.51h.61a6.45,6.45,0,0,1,.24,1.27c-.1,6.29-3.64,11-7,15.88A16.1,16.1,0,0,0,465,443.39a71.18,71.18,0,0,1,1.21,11.46,128.26,128.26,0,0,1-.44,17.76c-.54,4.47-2.3,8.81-3.63,13.17-1.08,3.54-2.32,7-3.5,10.54-.82,2.45-3,3.29-5.11,4.07a61.75,61.75,0,0,1-6.65,1.72l-.63-.55,2.1-.71c-3.74-1.05-7-2.07-10.25-2.84a3.77,3.77,0,0,1-3-4.36l3.85,4.11c.27-2.4,0-3.79-2-4.18-.25-.05-.61-.16-.68-.34-.86-2.17-2.69-1.73-4.36-1.65a39.09,39.09,0,0,0-5.94.4c-4.33.87-6.53,6.53-4.42,9.94a38,38,0,0,0,5.55,7.31c2.64,2.58,6.45,2.56,9.87,3a57.57,57.57,0,0,0,8.1.09c5.92,0,10.34-2.61,12.83-8a73.92,73.92,0,0,0,2.46-7.27,6.31,6.31,0,0,1,.54-1.07l.51.08a6.43,6.43,0,0,1,.12,1.79c-1.32,6.23-4,11.64-9.8,14.86a11.86,11.86,0,0,1-5,1.1c-5.48.28-10.94.35-16.35-1.05-4-1-6.42-3.79-8.59-6.9-1.74-2.47-2.94-5.23-2.41-8.35.85-5,4.8-7.62,10.21-7.64Zm5.88,4.56c-.67,3,.47,3.72,8.5,5.05-.37-1.35-.71-2.63-1.05-3.87l-2.67-.45V498l-.56.06c-.27-1-.53-2.06-.8-3.09Zm9.28,1.7c-.15,2.92.75,3.59,3.82,2.81-.24-1-.49-2-.69-2.81Z" transform="translate(-8.18 -40.61)"/>
        <path class="cls-7" d="M429.73,500.21a8,8,0,0,1,2,.12c3.05,1,6.07,2.08,9.14,3.05a17.91,17.91,0,0,0,3.16.33c-2.49,1.4-2.49,1.4-14.2-2.78Z" transform="translate(-8.18 -40.61)"/>
      </g>
      <path class="cls-7" d="M183.71,435.3c1.6-4.08,5.69-5.53,8.56-8.29l.43.46Z" transform="translate(-8.18 -40.61)"/>
      <path class="cls-7" d="M273,367.83c-4.2-2.68-8.91-4.67-12.26-9.07l12.6,8.59Z" transform="translate(-8.18 -40.61)"/>
      <path class="cls-7" d="M233.53,440.13l1.78-.69-3.57-2c1.15-.76,2.59-.28,5.46,2.08l-3.44,1.26Z" transform="translate(-8.18 -40.61)"/>
      <path class="cls-7" d="M208.09,332.84l-9.08,6.5-.21-.15c1.2-1.12,2.36-2.32,3.63-3.35a39.18,39.18,0,0,1,4.06-2.82c.42-.26,1.07-.12,1.61-.15C208.11,332.87,208.09,332.84,208.09,332.84Z" transform="translate(-8.18 -40.61)"/>
      <path class="cls-7" d="M212.85,436.65l-5.95-.46c2.09-1.86,4,0,6-.28Z" transform="translate(-8.18 -40.61)"/>
      <g>
        <path class="cls-7" d="M654.5,402.45c1.32,3.4,3.52,4.79,6.8,3.91,5.32-1.43,10.19.08,15,1.95,4.33,1.68,8.6,3.57,13,5.14,2.45.88,5.26.89,7.57,2,4,2,5.4,5.11,5.1,10.66-.18,3.23-3.08,6.38-6.61,7.39-1,.29-2,.56-3,.93-1.65.64-2.87,1.59-2.78,3.65a6.19,6.19,0,0,1-.75,2.08c8.53.31,16.16-3.64,24.26-5.08l.16.6-4.83,1.55c-2.88.93-5.74,1.93-8.65,2.76a22.49,22.49,0,0,1-5.78,1.17,15.56,15.56,0,0,0-9.1,2.81,16.66,16.66,0,0,1-10,2.79c-8.48,0-16.63,1.8-24.71,4.11-2.69.77-5.1.82-7.32-1.39-1.41-1.4-3.37-1.06-5-.24-2.6,1.3-5.1,2.81-7.67,4.18-5.14,2.75-9.71,1.47-13.41-2.08a24.27,24.27,0,0,1-1.92-2,7.62,7.62,0,0,1-2-7.1,81.59,81.59,0,0,0,1.17-11.2c.13-1.57,0-3.17,0-4.9.35.18.63.25.64.35.57,5.86,1.24,11.72-.54,17.5a2.62,2.62,0,0,0-.05,1.39c1.28,5.52,9,9.42,14.32,7.1,3.07-1.34,6-3.09,9-4.58s4.25-1.15,7,1a5.38,5.38,0,0,0,3.79,1c4-.72,8-1.92,12-2.69,3.5-.67,7-1.05,10.59-1.46,3.1-.35,6.21-.5,9.31-.87s7-4.21,7.9-7.37c.67-2.51,2-4.27,4.87-4.85a16.4,16.4,0,0,0,5.58-2.46c2.27-1.51,2.71-6.47,1.21-9.51-1.67-3.37-4.79-4.36-8.09-4.95-5.44-1-10.39-3.21-15.39-5.47a36.87,36.87,0,0,0-9.83-2.8,12.76,12.76,0,0,0-6.28,1.16,2.91,2.91,0,0,1-3.2-.52,10.68,10.68,0,0,1-1.6-1.48c-1.7-1.78-3.69-1.85-5.27,0-1.28,1.55-2.28,3.33-3.5,4.93-.42.55-1.24.8-1.71,1.34a21,21,0,0,0-5,10.58c-.84,5-3.13,6.57-8,5.13a9.11,9.11,0,0,1-1.86-.65c-4.21-2.33-8.46-2.89-12.77-.17-.28-1.92,2.17-3.23,4.79-3.06,1.66-2.14,3-4.32,4.72-6,3.36-3.13,6.73-6.4,10.61-8.77,3.64-2.22,8-3.32,11.93-5C651,404.23,652.72,403.3,654.5,402.45Zm-24.86,15.07,6.57,10.5,2.73-3.85-.85.05-6.25-9.15Zm3.5-3.25,5.05,8.38c.72-1,.72-1.87,1.14-2.45,1.62-2.15.59-3.75-.74-5.52C636.3,411.64,636.37,411.59,633.14,414.27Zm-6.46,6.29a57.59,57.59,0,0,1,3.84,5.47c.92,1.66,2.07,1.86,4,1.49l-5.79-9.08Zm14.59-4.31c.53-1.18.92-2.05,1.35-3-.72-1-1.48-2.08-2.21-3.1L638,411.41Zm1.86-4.25.79.15c.19-.67.69-1.45.51-2a1.61,1.61,0,0,0-2.55-1Zm-17.06,9.79-.61.3c-.53,1.74,1.54,2,1.84,3.29L628,425Z" transform="translate(-8.18 -40.61)"/>
        <path class="cls-7" d="M419.39,540.83c1.71-.56,3.46-1,5.11-1.71,4.63-1.94,9.26-3.89,13.8-6,3.41-1.59,6.66-3.52,10-5.2a18.07,18.07,0,0,1,5.46-2.15c1.12-.14,2.76.87,3.58,1.86a25.77,25.77,0,0,0,9.1,6.69,9.51,9.51,0,0,1,3.2,2.45,8,8,0,0,0,5.95,3.14,6.77,6.77,0,0,1,1.56.25c2.26.7,2.48,1.63.8,3.27-2.83,2.76-5.59,5.61-8.56,8.22a6.06,6.06,0,0,1-3.46,1c-5.9.32-11.54,1-16.8,4.33-4.8,3-10.51,4.1-16.06,5.32-2.89.63-5.74,1.49-8.63,2.15a10.32,10.32,0,0,1-8.7-1.73c-2.52-1.85-4.91-2.33-7.57-.18a18.43,18.43,0,0,1-4.17,2.26c-1.48.65-2.43.07-2.76-1.49a7.13,7.13,0,0,1-.17-1.38,9.69,9.69,0,0,0-4.15-8.47,2.63,2.63,0,0,1-.52-2.23,7.06,7.06,0,0,1,4.41-5.16c3.29-1.35,6.45-2.75,10.17-2.77,1.56,0,3.08-1.46,4.67-2.14,1.11-.48,2.3-.76,3.45-1.13Zm10.72,1.61c1.14-.28,2.3-.49,3.41-.86,4.11-1.38,8.35-2.51,11.73-5.47.49-.43.92-.94,1.39-1.43-2.65.3-5.14.92-7.57.77a15.84,15.84,0,0,0-8.7,2.34l.05.62,10.49-.54c-3.57,1.42-7,2.19-10.49,1.37a6.08,6.08,0,0,0-5.32,1.1l0,.68,6.64.46c-.65.42-1.11.71-1.58,1l-7-.88c.3,1,.74,2.1,2.54,1.69C427.14,543,428.63,542.72,430.11,542.44Zm25.05-14.88c-1.27,1.38-2.26,2.51-3.31,3.58a92.84,92.84,0,0,1-6.57,6.59c-3.35,2.82-7.55,4-11.67,5.18-5.7,1.59-11.43,2.49-17.49,1.56a19.46,19.46,0,0,0-12.59,1.77,23.51,23.51,0,0,0-4.73,3.32c-1.35,1.27-1,2.66.51,3.76,2,1.46,3.43,3.17,3.25,5.94-.09,1.33.5,2.71.88,4.5,1.72-1,2.92-1.62,4.09-2.34,2.94-1.79,5.14-3.16,9.07-.28A10.83,10.83,0,0,0,427,562.57c2.69-.88,5.5-1.4,8.22-2.21,4.33-1.29,8.68-2.58,12.95-4.08,2.22-.78,4.26-2,6.42-3a19.49,19.49,0,0,1,9.07-1.78c.74,0,1.49-.4,2.25-.45s1.43.41,1.88.16a21.32,21.32,0,0,0,4.22-2.86,62.34,62.34,0,0,0,4.94-5.33,1.42,1.42,0,0,0-.23-1.41,3.13,3.13,0,0,0-1.86-.46,6.37,6.37,0,0,1-5.8-2.75c-1.63-2.35-3.88-3.59-6.35-4.79a29.71,29.71,0,0,1-5.07-3.74C456.71,529.13,455.92,528.28,455.16,527.56ZM451,529.69l-13.14,4.39.24.72C442.66,533.93,448,535.39,451,529.69ZM422.2,544.08l.62-.9c-.75-.55-1.52-1.59-2.23-1.55a44.56,44.56,0,0,0-5.9,1.07l.07.61Zm26.59-15.25.2.55c1.64-.29,3.46-.16,4.3-2.34Z" transform="translate(-8.18 -40.61)"/>
        <path class="cls-7" d="M584.21,422.86c-5.4-.8-10.8-1.52-16.18-2.45a4.22,4.22,0,0,1-3.55-3.59,5.34,5.34,0,0,0-1.44-3.23c-1.13-1.09-.35-4.43,1.43-6.08,2.38-2.19,4.92-4.22,7.5-6.17a82.17,82.17,0,0,1,7.4-5.08c4.36-2.6,8.76-5.15,13.28-7.46,1.91-1,4.25-1.05,6.21-1.95s2.76-.24,4,1.39a24.73,24.73,0,0,0,5.91,5.07c2.61,1.76,5.31,3.37,7.19,6,1.12,1.55.68,5.44-.72,7.3-2.33,3.07-5.27,4.46-9.23,4.8-5.79.51-11.1,2.48-14,8.3-1.21,2.47-3.78,2.33-6,2.74a9.7,9.7,0,0,1-1.79,0Zm-17-17c3.08,1.13,3.38,1.05,6-1.8a6.8,6.8,0,0,0-2.58-.12,20.86,20.86,0,0,0-3.37,2c-.66.76-1.33,1.51-2,2.26l.27.65,3.1-.28Zm.4,9.53c1.47,3,3.36,5,6.8,5.12s6.73.6,10.1.77,6.21-.95,8-4.3c.86-1.63,1.77-3.42,3.94-4.21,4.27-1.56,8.38-3.48,13.08-3.57,2.53-.05,3.87-3,2.52-5.19a12.29,12.29,0,0,0-2-2.4c-3.83-3.68-8.5-6.61-10.26-12.07a2.23,2.23,0,0,0-2-.91,57.36,57.36,0,0,0-6.1,2.61c-2.2,1-4.34,2.2-6.52,3.26s-4.42,1.94-4.63,4.88a8.59,8.59,0,0,1-.86,2.33c-1.12-.8-1.77-.29-2.9.92a33.66,33.66,0,0,1-6.42,5.88,8.77,8.77,0,0,0-3.78,5l2.79,1.08Zm35.49-21.7.5,0,.75-2-3-3.08-.28.14C601.76,390.42,602.43,392.07,603.09,393.72Zm2.82-1-.9.19v3l2.37,1.6Z" transform="translate(-8.18 -40.61)"/>
        <path class="cls-7" d="M295,409.34l-5,1.86c1.12-2.05,4.46-3,6.6-1.87s4,2.06,6,2.95a14.61,14.61,0,0,0,3,.62c.24-.54.51-1,.71-1.58.54-1.42,1.57-1.83,3.05-2.07,3.55-.57,6.27.91,8.78,3.06,1.37,1.16,2.3,2.57,1.77,4.55a12.48,12.48,0,0,0-.27,2.38c-.15,2.47.8,3.55,3.17,4.26a45.06,45.06,0,0,1,4.35,2c2,.86,4,1.64,6,2.46-1.92,6.22-6.24,10.86-13.79,9.33a37.9,37.9,0,0,0-5.88-.86,11.77,11.77,0,0,0-4.19.68c-7.38,2.57-14.84,4.71-22.72,4.71a34,34,0,0,1-6.9-.71c-1.36-.29-2.69-.79-2.78-3-.06-1.59-1.7-3.05-2.21-4.7a93.48,93.48,0,0,1-3.27-12.42,7.06,7.06,0,0,1,6-8.36,34.88,34.88,0,0,1,11.58.2C291.68,413.36,293.36,412.42,295,409.34Zm.94,1.13c-4.6,3.65-4.59,3.55-10.09,2.88a29.34,29.34,0,0,0-7.07,0c-3.92.48-5.58,2.31-5.74,6.26a15.58,15.58,0,0,0,.88,4.82c1.07,3.74,2.14,7.5,3.45,11.17,1,2.69,2.75,4.64,5.9,4.87,9.47.71,18.38-1.59,27.11-4.93a7.7,7.7,0,0,1,3.26-.57,37.8,37.8,0,0,1,5.22,1.08c5.55,1.33,11.09-.67,12.4-7.06-2.25-1.36-4.42-2.68-6.61-4a2.64,2.64,0,0,0-1.15-.28c-4-.16-6.07-2.6-4.71-7.37a4.24,4.24,0,0,0-1.6-4.78,16.81,16.81,0,0,0-3.95-2.21A4.78,4.78,0,0,0,307,413a1.33,1.33,0,0,1-1,.64,8.15,8.15,0,0,1-2.93-.26C300.66,412.52,298.32,411.47,295.89,410.47Z" transform="translate(-8.18 -40.61)"/>
        <path class="cls-7" d="M650,460.8a2.89,2.89,0,0,1,0,.59,6.16,6.16,0,0,1-.36.87l2.37-1.12c-.23,1.95-1.6,2.36-2.85,2.8-3,1.05-5.95,2.06-9,3a3,3,0,0,1-2.22-.1c-2-1.36-4.12-1.26-6.31-1.21-1.91,0-3.81,0-5.71,0l-.06-.57,6.42-.7c-.25-.48-.5-.89-.69-1.33-.55-1.23-.56-2.25.87-3,2.09-1.1,4.09-2.4,6.19-3.49a9.49,9.49,0,0,1,2.42-.55l.25.56-4.14,2.26a28.07,28.07,0,0,0-3.27,1.81c-1.56,1.14-1.3,2,.47,3,3.71,2.23,7.29,1.47,10.87-.24l3.15-1.5a9.8,9.8,0,0,1-2.71-3.84c-1.38-3.35-3.51-3.88-6.92-2.46a9.19,9.19,0,0,1-2.88,1c.39-.52.67-1.29,1.18-1.51a20,20,0,0,1,4.81-1.66,3.73,3.73,0,0,1,3.84,1.92c1.2,1.86,2.66,3.56,4,5.32A1.57,1.57,0,0,0,650,460.8Z" transform="translate(-8.18 -40.61)"/>
        <path class="cls-7" d="M399.71,574.47c1.45-2.61,1.16-6.31,4.28-8.33a8.13,8.13,0,0,1,2.48-1.46c3-.61,6.07-1.52,8.75,1.1a5.49,5.49,0,0,0,2.51.89,14.8,14.8,0,0,1,2.35.5c-3,2.26-5.81,4.68-9.5,5.47S403.41,573.86,399.71,574.47Zm13.41-6.76c-5.4-3-9.51-1.22-10.49,4.58C406.75,572.24,411.21,573.09,413.12,567.71Z" transform="translate(-8.18 -40.61)"/>
        <path class="cls-7" d="M412.52,505.09c-.17,2.93-.3,5.21-.44,7.49h-.37c-.1-2.15-.2-4.31-.33-6.9-1.17,1-1.95,1.75-2.79,2.43-3.74,3-7.84,5.62-10.22,10.07-1.22,2.3-3.23,1.41-5,.54a4.12,4.12,0,0,0,3.58,4,38.71,38.71,0,0,0,7.69.25,58,58,0,0,0,6.45-1c-.1.26-.11.37-.14.37-5,1.11-10.06,3.14-15.24,1.12a11.53,11.53,0,0,1-3.95-3.32c-.34-.38-.07-1.72.37-2.25a2.14,2.14,0,0,1,2.06-.29c2,1.34,3.06.35,4.12-1.29a21.54,21.54,0,0,1,6.58-6.69c1.83-1.15,3.29-2.88,5.09-4.08a5.05,5.05,0,0,1,3.26-.79c2.95.43,5.8,1.24,7.95,3.59a4.59,4.59,0,0,1,1.39,4.38c-1.52-1.85-2.61-3.75-4.22-5S414.64,506,412.52,505.09Z" transform="translate(-8.18 -40.61)"/>
        <path class="cls-7" d="M401.08,398.38c.73-.08,1.47-.24,2.2-.25,2.52,0,5,0,7.21-1.56.1-.08.25-.07.38-.12,3.09-1.2,3.14-1.3,2.7-4.94-5.88-1.08-10.79,1-10,4-5,.23-9.94-.63-14.81.59l-3.58.9v.82l11.21.91c-4.54.32-8.85,1.29-13.48-1,.54-.58.94-1.41,1.52-1.57a44.09,44.09,0,0,1,15.71-1.72,2.28,2.28,0,0,0,1.67-.65c2.54-3,5.9-3.71,9.57-3.69a1.31,1.31,0,0,0,.4,0c1.92-.64,3.12-.3,3.3,2,.27,3.3-.41,4.6-2.85,5.16-2,.46-4,1.23-6.08,1.55a32.82,32.82,0,0,1-5.06.06Z" transform="translate(-8.18 -40.61)"/>
        <path class="cls-7" d="M636.53,510.84c.43-1.87,1.82-1.86,3-2.06,2.78-.48,5.61-.76,8.37-1.34,3.15-.66,6.23-1.65,9.37-2.32a56.59,56.59,0,0,1,5.69-.65c3.41-.36,6.81-.86,10.23-1,4.61-.23,9.23-.19,13.85-.26h2.86l0,.66c-3.61.06-7.22.1-10.83.19-2.91.08-5.83.15-8.74.37-4.15.31-8.29.76-12.43,1.15a3.55,3.55,0,0,0-1,.08c-5.91,2.44-12.23,3.11-18.41,4.38A12.82,12.82,0,0,0,636.53,510.84Z" transform="translate(-8.18 -40.61)"/>
        <path class="cls-7" d="M596.87,420.55a44.46,44.46,0,0,0,2.71-4.17c2.1-4.23,5.63-3.89,9.34-3.06a29.27,29.27,0,0,1,3.8,1.05c1.67.62,1.9,1.74.34,2.62a34.22,34.22,0,0,1-7,3,41.14,41.14,0,0,1-7,1.14A8.12,8.12,0,0,1,596.87,420.55Zm15.58-4.29c-5.05-3.74-12.08-1.9-13.45,3.47C603.72,419.47,608.2,418.75,612.45,416.26Z" transform="translate(-8.18 -40.61)"/>
        <path class="cls-7" d="M384.71,390.8c1.24-.18,2.47-.41,3.72-.54,3.78-.41,7.58-.69,11.34-1.21a32.08,32.08,0,0,0,5.11-1.42c4.48-1.4,8.94-2.86,13.42-4.25a2.27,2.27,0,0,1,1.53.2C408.45,387.69,397,391.32,384.71,390.8Z" transform="translate(-8.18 -40.61)"/>
        <path class="cls-7" d="M384.88,489.11c2.29-1.08,4.16-3.25,7.09-2.69.7.13,1.39.38,2.09.44a4.66,4.66,0,0,0,2.24-.1c2.94-1.31,3.11-1.22,5.26,1.21a57.07,57.07,0,0,0,4.47,4.11c-1.06.75-2.52.46-4.29-1.26a10.94,10.94,0,0,1-1.29-1.51c-1.2-1.71-2.44-2.44-4.38-.84a3,3,0,0,1-2.57-.07c-2-1-3.81-1.23-5.71.29a10,10,0,0,1-2.76,1.05Z" transform="translate(-8.18 -40.61)"/>
        <path class="cls-7" d="M534,496.18l2.74,1.31,2.62,1.21-.29.62-5.92-2.76c.19,1,.48,2.42.81,4.14-1.83-1.14-.53-4.26-3.5-4.84.67-.34,1.32-1,2-1,5.94-.23,12.32-2,16.51,4.52l-1,1c-1.86-1.54-3.39-3.6-5.37-4.24-2.62-.84-5.6-.56-8.42-.76Z" transform="translate(-8.18 -40.61)"/>
        <path class="cls-7" d="M425.83,485.48c-1.95-1.85-2.12-5-4.73-4.47-1.91.35-3.6,1.85-5.28,2.78.33-2.65,5.39-5.4,8.11-3.67-.16-1.51-.27-2.7-.42-3.88-.41-3.27.72-5.13,3.74-6.13l.56.55a7.61,7.61,0,0,0-1.35.54,4.58,4.58,0,0,0-2,4.68c.34,2.33,1.06,4.6,1.51,6.92A12.53,12.53,0,0,1,425.83,485.48Z" transform="translate(-8.18 -40.61)"/>
        <path class="cls-7" d="M356.27,505a44,44,0,0,1-15.51.31,20.55,20.55,0,0,0-10.95,1.2c-4.64,2-9.42,1.7-14.24,1-.24,0-.46-.24-.66-.81a20.56,20.56,0,0,1,3.25.23,17.59,17.59,0,0,0,9.54-.66c6-2,12.19-1.87,18.42-1.31C349.38,505.19,352.69,505,356.27,505Z" transform="translate(-8.18 -40.61)"/>
        <path class="cls-7" d="M317.4,442.91c.42-.28.81-.76,1.26-.81q4.83-.57,9.69-1a4.64,4.64,0,0,1,2.68.25c2.86,1.94,6.07,1.37,9.15,1.45,1.77.05,3.55-.52,5.33-.66a18.81,18.81,0,0,1-15.31.45c-1.94-.72-4.39-.25-6.58-.08-1.95.15-3.88.63-5.82,1Z" transform="translate(-8.18 -40.61)"/>
        <path class="cls-7" d="M521.26,514c.6,0,1.2,0,1.79,0,1.32.08,2.33.51,2.4,2.08s-.78,3-2.25,2.95a39,39,0,0,1-7.9-1.39c-.61-.15-.95-1.36-1.42-2.09a7.5,7.5,0,0,1,2.09-1.13c1.74-.31,3.52-.39,5.28-.56Zm-6.11,1.53c1.41,1.87,6.63,3.4,8,2.53.53-.35.74-1.16,1.1-1.76-.45-.26-.9-.72-1.37-.74C520.4,515.5,518,515.54,515.15,515.54Z" transform="translate(-8.18 -40.61)"/>
        <path class="cls-7" d="M452.22,567.18l-31.62,5.69-.23-.44a16.54,16.54,0,0,1,2.94-1.08c7.4-1.25,14.81-2.44,22.22-3.63,2.2-.35,4.4-.66,6.6-1Z" transform="translate(-8.18 -40.61)"/>
        <path class="cls-7" d="M305.32,466c-.13-3-1-4.12-4.09-5.11-4.79-1.53-8.4-.22-11.1,4-.13.2-.37.32-1,.33a5.55,5.55,0,0,1,.56-2c2.6-3.25,7.87-5.38,11.81-3.48a22.18,22.18,0,0,1,3.53,1.72C306.54,462.61,306.54,464.37,305.32,466Z" transform="translate(-8.18 -40.61)"/>
        <path class="cls-7" d="M381.89,494.06l18.33,1.19.25.23c-1.17.42-2.38,1.27-3.52,1.18-4.2-.32-8.38-.94-12.56-1.47-.84-.11-1.67-.32-2.5-.47Z" transform="translate(-8.18 -40.61)"/>
        <path class="cls-7" d="M405.67,575.85c-2.35.27-4.75,1-7.05.73a53.42,53.42,0,0,0-10.58.11c-.63.06-1.32-.51-2-.8a6.63,6.63,0,0,1,1.39-1.49,8.45,8.45,0,0,1,2.18-.61l.17.6-1.58,1.08h17.45Z" transform="translate(-8.18 -40.61)"/>
        <path class="cls-7" d="M504.59,513.12a9.54,9.54,0,0,1-8.48,3.11c-3.42-.44-6.81-1.19-10.72-1.89.81-.29,1.19-.57,1.54-.53a60.86,60.86,0,0,1,7.76.92A13.62,13.62,0,0,0,504.59,513.12Z" transform="translate(-8.18 -40.61)"/>
        <path class="cls-7" d="M650,460.8a1.57,1.57,0,0,1-.26-.19c1.57-3.06,3-3.53,6.06-2,1.69.83,3.49.85,6.58.07l.31.49c-1.08.56-2.14,1.49-3.26,1.58a7.77,7.77,0,0,1-4.38-.81c-1.56-.92-2.52-.52-3.68.42A4.43,4.43,0,0,1,650,460.8Z" transform="translate(-8.18 -40.61)"/>
        <path class="cls-7" d="M546.05,506.16a2.27,2.27,0,0,1,3.22-2.16,15.9,15.9,0,0,1,2.81,1.37,2,2,0,0,1,.75,1.57c-.11,1.09-2.33,2.33-3.67,2.21A3.21,3.21,0,0,1,546.05,506.16Zm1.65-.9c-.16,1.65.19,2.85,2,2.66.58-.06,1.61-1,1.54-1.22C550.71,505,549.3,505.05,547.7,505.26Z" transform="translate(-8.18 -40.61)"/>
        <path class="cls-7" d="M530.24,486.41a37.35,37.35,0,0,0-5.11,1.73c-2.67,1.33-2.73,2.67-.45,4.58l.54.43-.45.53c-.79-.77-2-1.44-2.25-2.34a3.53,3.53,0,0,1,1-3.1,33.87,33.87,0,0,1,6.79-2.95c1.07-.36,2.36-.21,1.73,1.74-.23.7.23,1.63.17,2.61Z" transform="translate(-8.18 -40.61)"/>
        <path class="cls-7" d="M411.51,488c-1.83-1.83-3-3.76-4.78-4.58-2.07-1-3.91.64-5.53,2.79.34-2.83,1.41-3.68,4.42-4.12,1.82-.27,4.94,1.78,6,4.09C411.84,486.62,411.56,487.35,411.51,488Z" transform="translate(-8.18 -40.61)"/>
        <path class="cls-7" d="M426.21,488.9l.65-2.15-7.52.84-.07-.51a16.59,16.59,0,0,1,8.64-1.37,2.89,2.89,0,0,1,.33,1.9c-.18.63-.84,1.13-1.29,1.69Z" transform="translate(-8.18 -40.61)"/>
        <path class="cls-7" d="M538.21,431.57l-11.15-.74,0-.8h8.71V430l-2.6.27v.5h5Z" transform="translate(-8.18 -40.61)"/>
        <path class="cls-7" d="M529.08,518.19c.17.57.35,1.15.57,1.9l2.08-.77-1.08-1.59.3-.38c.56.44,1.59.92,1.56,1.31a2.79,2.79,0,0,1-1.23,2,9,9,0,0,1-2.8.49c-.08-.94-.16-1.87-.25-2.81Z" transform="translate(-8.18 -40.61)"/>
        <path class="cls-7" d="M417.09,381.8l-12.55-2.08c.06-.3.11-.59.17-.89l12.51,2.47Z" transform="translate(-8.18 -40.61)"/>
        <path class="cls-7" d="M490.91,552.5,479,555l-.15-.71,12-2.33Z" transform="translate(-8.18 -40.61)"/>
        <path class="cls-7" d="M604.73,489.89l-10.46,2-.07-.4,10.42-2.24Z" transform="translate(-8.18 -40.61)"/>
        <path class="cls-7" d="M389,402.68l8-1c-2.65.67-5.17,2.16-8,1.74Z" transform="translate(-8.18 -40.61)"/>
        <path class="cls-7" d="M278.66,473.35h6.95v.35h-6.93Z" transform="translate(-8.18 -40.61)"/>
        <path class="cls-7" d="M297,471l5.26-4.08C302,468.87,299.55,470.83,297,471Z" transform="translate(-8.18 -40.61)"/>
        <path class="cls-7" d="M366.52,450.29c1.05.06,2.09.16,3.13.19s2.22,0,3.71,0C370.81,451.15,368.63,451.76,366.52,450.29Z" transform="translate(-8.18 -40.61)"/>
      </g>
      <path class="cls-7" d="M422.85,311.09l0,0,.49.08-.1.27Z" transform="translate(-8.18 -40.61)"/>
      <path class="cls-7" d="M226.89,367.11c1.16-.46,2.47-1.41,3-1.09a5.19,5.19,0,0,1,1.8,3c.08.3-1.38,1.37-2.21,1.47C227.38,370.7,227.85,368.6,226.89,367.11Z" transform="translate(-8.18 -40.61)"/>
      <path class="cls-7" d="M216.64,367.35c.8-.67,1.52-1.71,2.43-1.91a1.79,1.79,0,0,1,2.11,1.88c0,1.16-.66,2.26-1.9,2.16-.89-.08-1.72-.88-2.58-1.35Zm3.57,1.26c-.77-2.2-1-2.26-2.94-.71Z" transform="translate(-8.18 -40.61)"/>
      <path class="cls-7" d="M208.34,354.27h7.41v.43h-7.41Z" transform="translate(-8.18 -40.61)"/>
      <path class="cls-7" d="M215.67,347.81v-5.75l.1,0c.16,1.91.31,3.82.47,5.73Z" transform="translate(-8.18 -40.61)"/>
      <g>
        <path class="cls-7" d="M519.42,164.3a52,52,0,0,1-1.59,5.1,1.8,1.8,0,0,0,.67,2.46,16.77,16.77,0,0,1,2.75,3.34c.6.88.59,1.75-.91,1.47a44,44,0,0,1-4.83-1c-1.59-.48-2.63-.27-3.23,1.45a8.45,8.45,0,0,1-1.33,2.17c-1,1.3-2,1.15-2.51-.48s-.61-3.08-.87-4.43c-1.4-.81-2.79-1.5-4-2.4-.5-.35-.68-1.15-1-1.75a7.37,7.37,0,0,1,2.39-1,19.91,19.91,0,0,1,3.5.43c.36-1.9.64-3.72,1.07-5.51.11-.46.66-.82,1-1.23.4.36.94.66,1.17,1.11a19.88,19.88,0,0,1,.87,2.61l6.27-2.66Zm-8.48,1.25-.76.09a23.22,23.22,0,0,0,.33,3.13c.4,1.73.05,2.31-1.72,2.25-1.27-.05-2.53-.24-4.08-.39,1.11,2.39,3.18,1.16,4.31,1.75.15,1.91.29,3.66.42,5.41l.67.18c.51-1,1.4-1.94,1.46-2.95.1-1.52.81-1.34,1.79-1.18,1.72.3,3.44.56,5.16.84l.56-.75c-.66-.41-1.3-.88-2-1.22-1.81-.89-1.31-2-.51-3.34a18.06,18.06,0,0,0,1.17-3.24c-1.79.49-3.93.25-4.26,2.68l-2.25-.76Z" transform="translate(-8.18 -40.61)"/>
        <path class="cls-7" d="M348.72,211.19l5.8,4.23,5.58-1.31.42.49c-1,1.32-1.85,2.73-2.93,4-1.69,1.91-1.75,1.93.12,3.71.57.54,1.22,1,1.83,1.48-.55,1.75-4.63,1.59-7.72-.36-1.13,1.43-2.21,2.9-3.43,4.27a2.29,2.29,0,0,1-1.65.67c-.27,0-.66-.94-.67-1.45,0-2.2-1.66-2.82-3.26-3.49-1.28-.54-2.58-1-4.23-1.7,2.35-1.77,4.6-1.82,6.8-1.86,1.56,0,2.19-.52,2.28-2.16A64.61,64.61,0,0,1,348.72,211.19Zm-.86,15.5a34.84,34.84,0,0,0,2.14-3.6c.57-1.26,1.09-1.5,2.38-.8a21.75,21.75,0,0,0,4.07,1.31,1.48,1.48,0,0,0-.49-1.2c-1.33-1.22-1.81-2.36,0-3.68a15,15,0,0,0,2.15-2.39l-.34-.45-4.18,1.43-3.09-3.61c-.59,2-1,3.4-1.45,4.85-.3,1-.59,1.81-2.07,1.83a37.54,37.54,0,0,0-5.84,1c.57.38.85.73,1.16.76,2.72.27,4.89,1.13,5.09,4.33A2.79,2.79,0,0,0,347.86,226.69Z" transform="translate(-8.18 -40.61)"/>
        <path class="cls-7" d="M722.59,217c-.67-1.2-1.35-2.4-2.16-3.82-1.57,1.2-3.1,2.35-4.63,3.5l-.48-.45c1-1,1.88-2.09,2.9-3.07,2.65-2.54,3.09-2.32,4.41,1.25.39,1,1.68,1.76,2,2.8.82,2.37,2.9,3.27,5.09,4.83a24,24,0,0,1-3.64,1.92c-1.14.36-1.55.8-1.49,2.05.08,1.82-.55,2.13-2.15,1.32a12.88,12.88,0,0,1-2.61-1.43c-1.85-1.59-3.57-1-5.43-.06a13.62,13.62,0,0,1-2.74.72l-.35-.63a32.9,32.9,0,0,1,2.54-3.5c1.07-1.15.62-1.78-.41-2.52a21.79,21.79,0,0,1-2.71-2.26c-.31-.32-.28-1-.41-1.45a3.72,3.72,0,0,1,1.4-.32c1.2.23,2.36.61,3.54.93l-.11.6-3.34-.29c1.52,1.18,2.66,2.12,3.84,3s1.37,1.46,0,2.34a3.3,3.3,0,0,0-1.15,1.94c.5-.24,1.17-.35,1.45-.74,1-1.42,1.92-.87,3-.09s2.22,1.33,3.61,2.15v-3.24h4l.25-.9a27.25,27.25,0,0,0-3.61-2.09C721.46,218.74,721.28,218.38,722.59,217Z" transform="translate(-8.18 -40.61)"/>
        <path class="cls-7" d="M609.45,187.41c-1.43,0-2.86,0-4.29,0-.15,0-.3.17-.65.39,1.62.44,3.46.41,4.32,1.32s.72,2.74,1.07,4.46c.58-1.67,1.05-3,1.5-4.34l4.79,1.21c-.94-1.19-2-2-2.16-2.89s.61-2,.81-3.31c-2.46,1.36-4.65,2.32-5.82-1.7-.33,1-.48,1.51-.69,2.16-.36-.22-.88-.38-.91-.61-.2-1.3-.29-2.61-.42-3.93a4.15,4.15,0,0,1,1.52.14c.35.17.46.78.78,1.09,1.42,1.41,2.92,2.52,5.11,1.58a13.39,13.39,0,0,1,2.45-.53c0,.76.17,1.58-.15,2-1.87,2.46-.08,3.89,1.34,5.5.32.37.64,1.12.48,1.45a1.75,1.75,0,0,1-1.4.77c-1.6-.13-3.19-.44-4.92-.7l-1.88,4.8c-.88-1.38-1.73-2.18-1.91-3.1-.41-2.11-1.32-3.33-3.59-3.6a11.81,11.81,0,0,1-3.38-1.38c-.23-.11-.52-.49-.48-.69s.35-.76.6-.8c2.09-.32,4.18-.64,6.28-.76.64,0,1.31.52,2,.81Z" transform="translate(-8.18 -40.61)"/>
        <path class="cls-7" d="M230.69,190.94c-.86,2.7-1.67,5.06-2.34,7.46-.13.46.26,1,.39,1.58a18.91,18.91,0,0,0,1.1,4.12c.91,1.78-.28,2.57-1.08,3.78a41.54,41.54,0,0,0-2.46,5c-1.26.16-1.11-1-1.19-2.09-.22-2.88.12-5.9-1.82-8.38a6.52,6.52,0,0,0-1.74-1.42c-1.54-1-3.14-1.83-4.65-2.84a1.75,1.75,0,0,1,.43-1.37,10.91,10.91,0,0,1,2.59-.58l-1.47,1.93c1.71.85,3.6,1.35,4.87,2.53s1.77,2.93,2.77,4.72c0-1.3-.05-2.33,0-3.36s-.16-2,1.16-2.6c.44-.19.3-1.58.5-2.4.24-1.09.56-2.16.95-3.63a7.53,7.53,0,0,1-7.42-1.7c-.06,1.08-.12,2-.17,2.88h-.73c-.12-1.66-.25-3.32-.43-5.67,1.44,1.16,2.47,1.9,3.4,2.75a4.6,4.6,0,0,0,6-.29C229.66,191.14,230.17,191.12,230.69,190.94Zm-4.3,16.74.56.34c.32-1.41,2.26-2.21.82-4.26Z" transform="translate(-8.18 -40.61)"/>
        <path class="cls-7" d="M409.25,272.38c-.21-.17-.64-.37-.62-.52.26-2.26.58-4.51.88-6.76l.64-.2,3.93,4.14,2.43-2.56c.31.2.54.27.61.41a63.74,63.74,0,0,1,2.88,5.72,2.24,2.24,0,0,1-1.06,1.89c-2.18.34-2.4,1.81-2.56,3.53a5.06,5.06,0,0,1-.79,1.62,7.14,7.14,0,0,1-1.23-1.36,17.2,17.2,0,0,1-1-2.47c-2.85,1.43-5.11-.65-7.62-1.1-.17,0-.42-.7-.35-.76a2.84,2.84,0,0,1,1.06-.59c.93-.27,2.26.53,2.73-1l1.86.37.13.43-2.27,1.25.13.55c1-.83,2.52,1.89,3.37-.85,0,0,1.18.09,1.45.42a14.38,14.38,0,0,1,1.27,2.55l1.39-4.06,2.85.26-3-4.2-3,2,.15-.72-2.9-2.9a12,12,0,0,0-.48,2.76A10.31,10.31,0,0,1,409.25,272.38Z" transform="translate(-8.18 -40.61)"/>
        <path class="cls-7" d="M445.27,103.58c.7-1.54,2.61-1.54,4.22-1.76A20.11,20.11,0,0,1,454,102a3.37,3.37,0,0,1,3.39,3.62,12,12,0,0,0,0,1.59c1.23,6.81-7.29,10.09-12.3,7.36a3.65,3.65,0,0,1-1.79-4.83,46.25,46.25,0,0,1,2.12-4.37l.82.39c-.46,1-.89,2-1.39,3-1.45,2.9-.08,5.3,3.17,5.55a8.61,8.61,0,0,0,6.77-2.16c1.87-1.74,1.38-4.09,1-6.33a2.73,2.73,0,0,0-2.93-2.44C450.39,103.34,447.86,103.51,445.27,103.58Z" transform="translate(-8.18 -40.61)"/>
        <path class="cls-7" d="M672,265.15a64.69,64.69,0,0,0,6.06-2.72c3.61-2,7.16-4.2,10.62-6.48,1.68-1.11,2.82-.95,4.41.25a66.68,66.68,0,0,0,8.16,5.2c4.69,2.56,8.53,6.16,12.47,9.67,1.7,1.52,3.61,2.81,5.31,4.45-1.81-1.11-3.94-1.9-5.36-3.38-5.79-6-13.06-9.86-20-14.19-2.66-1.65-4.33-1.3-6.74.15-4.7,2.82-9.63,5.27-14.46,7.87Z" transform="translate(-8.18 -40.61)"/>
        <path class="cls-7" d="M429.63,165c-13.16-3.16-25.9-7.47-37.81-14l.09-.55a15.6,15.6,0,0,1,3,.74c4.26,2,8.39,4.26,12.73,6,4.75,1.93,9.67,3.47,14.54,5.09,2.51.84,5.08,1.48,7.62,2.22Z" transform="translate(-8.18 -40.61)"/>
        <path class="cls-7" d="M245.36,197.58c-2.44.27-3.73,1.94-3.82,4.94-.87-2.56-.52-3.71,1.67-5.2a9.54,9.54,0,0,1,3-1.82c3.51-.75,5.93,2.19,6.07,5.56a1.63,1.63,0,0,1-.66,1.13,56.13,56.13,0,0,1-5.14,3.24,2.21,2.21,0,0,1-3.2-1.77,7.22,7.22,0,0,1,2-6.16,3.31,3.31,0,0,1,.1,1.11,37,37,0,0,0-1.17,4.13c-.21,1.61.91,2.31,2.34,1.59a24.28,24.28,0,0,0,3.05-1.85c.73-.52,2-.81,1.36-2.22s-1-3.54-3.2-3.57A7.51,7.51,0,0,0,245.36,197.58Z" transform="translate(-8.18 -40.61)"/>
        <path class="cls-7" d="M286.69,266c-1.31.45-2.51.78-3.64,1.27-5.29,2.32-8.62,7.21-13.38,10.25-2.77,1.77-5.28,3.95-8.21,5.75a11.09,11.09,0,0,1,1.44-1.67c3.91-3,7.87-6,11.76-9a11.5,11.5,0,0,0,2.74-2.74c1.74-2.79,4.93-3,7.42-4.4C285.23,265.23,286.12,265.84,286.69,266Z" transform="translate(-8.18 -40.61)"/>
        <path class="cls-7" d="M381,146.51c1.3-.92,1.91,1,2.91,1.5a2.37,2.37,0,0,1,.68,2.14,4.57,4.57,0,0,1-4,3.36,4.16,4.16,0,0,1-4.62-2.3c-.43-.81-.46-2.58.06-3,.81-.64,2.24-.51,3.42-.7l.08.61c-.09.08-.17.21-.28.24l-2.87.74c.16.61.13,1.52.52,1.79a26,26,0,0,0,3.56,1.73.24.24,0,0,0,.19,0c1.05-.89,3-1.88,3-2.65C383.53,148.74,382,147.68,381,146.51Z" transform="translate(-8.18 -40.61)"/>
        <path class="cls-7" d="M563.25,162c-1.83,2.87-1.81,3.4-.07,4.36,1.26.68,3.27.31,3.43-.78.32-2.15-1.8-1.68-2.89-2.35,1.71-.82,3.51-.36,4.11,1.07s0,2.39-1.3,3.06a4,4,0,0,1-5.47-1.49C560.32,164.44,560.92,163.24,563.25,162Z" transform="translate(-8.18 -40.61)"/>
        <path class="cls-7" d="M733.7,274.22a40.86,40.86,0,0,1,4.23-4.83c.62-.54,2.18-.38,3.14-.05,3.34,1.15,6.6,2.52,9.89,3.8.42.16.84.28,1.26.42l-.14.48c-2.63-.84-5.27-1.67-7.91-2.53-.43-.14-.82-.41-1.25-.57-2.41-.92-4.72-1.36-6.52,1.21-.63.91-1.42,1.72-2.14,2.57Z" transform="translate(-8.18 -40.61)"/>
        <path class="cls-7" d="M408.82,161.58c-5.17-1.35-10.34-2.68-15.5-4.08a4.77,4.77,0,0,1-2.43-1.62L409,161.07Z" transform="translate(-8.18 -40.61)"/>
        <path class="cls-7" d="M351.61,273.48l-2.85-.26c.08-.18.11-.35.19-.39,1.33-.64,3.1-1.06,3.47.56.22.95-1.25,2.47-2.26,3.41a2.82,2.82,0,0,1-2.48,0,2.7,2.7,0,0,1-1.3-1.89c0-.49.88-1.05,1.36-1.57l.33.37c-.2.51-.6,1.06-.53,1.54,0,.3.78.68,1.23.7C350.32,276.09,350.93,275.56,351.61,273.48Z" transform="translate(-8.18 -40.61)"/>
        <path class="cls-7" d="M155.87,105.75c1.7,1.36,3.12.85,4.65-.56-1.15,2.18-3.06,2.71-4.83,1.6-1.48-.94-1.39-3,.25-5.46C157.38,102.48,157.38,104,155.87,105.75Z" transform="translate(-8.18 -40.61)"/>
        <path class="cls-7" d="M620.6,259.06a18.85,18.85,0,0,0,3.1.65,1.64,1.64,0,0,0,1.21-1,1.5,1.5,0,0,0-.73-1.31,31.45,31.45,0,0,0-3.62-.92c1.65-1.12,4.48-.92,5.21.48a2.39,2.39,0,0,1-.83,3.31C623.63,261.17,621.51,260.49,620.6,259.06Z" transform="translate(-8.18 -40.61)"/>
        <path class="cls-7" d="M687.37,197.63a15.71,15.71,0,0,0,3.07.21,1.61,1.61,0,0,0,1-1.23,2.2,2.2,0,0,0-.89-1.55,20.72,20.72,0,0,0-3.14-1.31c2-.5,3.51-.33,4.5.84a3.23,3.23,0,0,1,.56,2.79c-.62,1.41-2.14,1.77-3.62,1.4C688.27,198.63,687.81,198,687.37,197.63Z" transform="translate(-8.18 -40.61)"/>
        <path class="cls-7" d="M220.72,225c-.4-2,1-2.09,2.25-1.89a2,2,0,0,1,1.38,1.33c.05,1.4-1.59,2.94-2.7,2.56-.6-.2-1-1.13-1.41-1.73Zm.47-1.42c.06,1.2.1,1.87.14,2.53.54-.09,1.22,0,1.59-.32s.42-1,.62-1.48Z" transform="translate(-8.18 -40.61)"/>
        <path class="cls-7" d="M631.05,285.27l10.5-2.94.17.57-10.44,3Z" transform="translate(-8.18 -40.61)"/>
        <path class="cls-7" d="M657.31,181.56h5.54c-.84,2-2.42,1.49-3.67,1.42a7.19,7.19,0,0,1-2.3-1Z" transform="translate(-8.18 -40.61)"/>
        <path class="cls-7" d="M738.53,174c1.08.63,2.18,1.25,3.23,1.93.1.07-.06.8-.14.81-.53.05-1.25.19-1.58-.09a15.44,15.44,0,0,1-1.83-2.17Z" transform="translate(-8.18 -40.61)"/>
        <path class="cls-7" d="M750.33,234.25l-1.93,1.42c-1.44-.86-1.44-.86,1.07-2.67Z" transform="translate(-8.18 -40.61)"/>
        <path class="cls-7" d="M576.83,282l-2.62-1.13-.09-.58,2.93-.8Z" transform="translate(-8.18 -40.61)"/>
        <path class="cls-7" d="M716.67,96.62l-2-.51.6-1.49,1.81,1Z" transform="translate(-8.18 -40.61)"/>
        <path class="cls-7" d="M718.4,125.38a4.87,4.87,0,0,1,1.88.08c.25.11.14,1,.19,1.55l-2.19-.61Z" transform="translate(-8.18 -40.61)"/>
        <g>
          <path class="cls-7" d="M264,134.77a16.57,16.57,0,0,0-.78-2.83l-1.72,2.36c.05-1.12.08-1.66.11-2.29a19.1,19.1,0,0,0-2.77.44,2,2,0,0,0-1.17,1c-.5,1.91-.92,3.85-1.26,5.8-.44,2.47-2.26,4.09-4.73,3.77-4.27-.55-7.41,1.68-10.49,4.06a2.75,2.75,0,0,0-.84,1.47c-.73,2.85,1.25,8.32,3.78,9.8,1.16.68,2.7.72,4.1,1.06a3.8,3.8,0,0,1-4.71.16,11.79,11.79,0,0,1-4.6-7.41c-.39-2.56,0-5.19,2.13-6.69,3-2.12,6.09-4.22,10.11-4,3.32.17,3.33.07,4.23-3.19.09-.32.16-.65.26-1,.86-2.7,1.55-5.47,2.65-8.07a2.53,2.53,0,0,1,4.27-.42,15.76,15.76,0,0,1,2.24,5c.69,3.35,2.16,4.79,5.66,2.81,1.65-.94,3.51-1.51,5,.72a41.3,41.3,0,0,0,.57-28.18c-1.78.8-3.18,1-4.23-.7-.15-.24-.71-.32-1.07-.31-1.92,0-3.85.1-5.77.24a5.57,5.57,0,0,1-6.08-4.73,18.63,18.63,0,0,0-.8-3c-.56-1.57-1.64-2-3.13-1.17a34.27,34.27,0,0,1-4.85,2.73,18.79,18.79,0,0,1-6.2,1.31c-1.81,0-4.77-3.77-4.91-5.67a4.52,4.52,0,0,1,2.09-4.46,12.47,12.47,0,0,0-.84,2.34,5.52,5.52,0,0,0,0,2.89c2,3.88,6,4.58,9.68,2.12a82.42,82.42,0,0,1,7.35-3.94c.2-1,.47-2.75.92-4.43.11-.43.77-.72,1.18-1.07.19.44.61.93.52,1.31-.43,1.84-1,3.65-1.48,5.35a34.17,34.17,0,0,1,1.51,4.55c.75,3.89,3.87,5,6.81,4.52,2.22-.4,4.71-1,6.77.94.32.31,1.22,0,1.92,0-3.18-10.52-15.57-21.66-25.37-24.12-.71,1.58-1.09,3.39-2.15,4.6-2.75,3.14-6.13,4.46-8.95,1.87-1.38-1.26-2.57-1.19-4.12-.95a41.78,41.78,0,0,1-6.1.55c-2,0-3.14-1.31-2.73-3.24a17.9,17.9,0,0,1,1.82-3.87c-.27.94-.55,1.88-.81,2.83-.56,2-.11,3.08,1.9,3.21a17.5,17.5,0,0,0,4.49-.81c2.36-.49,4.72-1.41,6.62,1.19a3.69,3.69,0,0,0,2.51,1c3.12.15,6.38-4.1,5.7-7.22l-1.83-.58h4a60.79,60.79,0,0,1,7.25,3.54,78.38,78.38,0,0,1,9.15,7,36.52,36.52,0,0,1,10.83,17.62c3.93,13.83,1.47,26.5-7.49,37.77a40.66,40.66,0,0,1-24.05,14.58,43.05,43.05,0,0,1-15.77.48c-4.44-.7-8.91-1.31-12.89-3.5-11.95-6.58-19.68-16.29-22.16-30a38.3,38.3,0,0,1,4.11-26c3.45-6.32,7.86-11.92,14-15.86,3.29-2.1,6.83-3.78,10.26-5.66h4.79l-.59.44c-2.73.92-5.54,1.66-8.17,2.8a36.47,36.47,0,0,0-12.53,8.86,55.27,55.27,0,0,0-7.09,10.26,34.46,34.46,0,0,0-4.35,21.06,42.58,42.58,0,0,0,6.67,18.82A38.86,38.86,0,0,0,221,159.94a42.21,42.21,0,0,0,22.16,2.39c13-1.91,22.79-8.59,29.78-19.69l-1.3-.88c.64-.5,1.39-.8,1.63-1.33a10.34,10.34,0,0,0,.48-2.58,7.63,7.63,0,0,0-2-.27,19.91,19.91,0,0,0-2.65.77M258.32,132l4.07-1.4C260.71,128.72,259.33,129.17,258.32,132Z" transform="translate(-8.18 -40.61)"/>
          <path class="cls-7" d="M279.21,82.38c0,.8-.07,1.6,0,2.39.1,2.43.93,4.2,3.47,5.18,5.43,2.1,10.5,2.29,15.23-1.66,1.89-1.58,2.22-3.65,2.11-5.91h1.2c.45,3.8-2.21,7.4-5.71,9-4.71,2.15-9.12,1.13-13.59-.34-3-1-4-2.84-4-6.28,0-.79.06-1.59.09-2.38Z" transform="translate(-8.18 -40.61)"/>
          <path class="cls-7" d="M636,82.38c.15.85.63,1.83.35,2.5a3.18,3.18,0,0,1-2,1.75A2.68,2.68,0,0,1,632,85.36c-.3-.84.2-2,.36-3Z" transform="translate(-8.18 -40.61)"/>
          <path class="cls-7" d="M594.93,115.21c2.66-3,5.91-2.23,8.91-1.81s6.14,1.37,9.19,2.09c4.76-7.87,13.4-11.68,22.7-10.14a21,21,0,0,1,10.6,4.47c3.1,2.63,5.64,5.68,6.62,9.55.93,3.64,1,7.48,1.51,11.19l.33-1.49c2.79,2.36,5.43,4.54,8,6.78.78.69,1.34,1.62,2.08,2.36,2.19,2.17,2.35,4.86.17,6.86a3,3,0,0,1-2.35.37c-3.52-.83-7.05-1.7-10.5-2.77-2.7-.83-4.82-1-7.34,1.11-5.88,4.9-12.74,5.51-19.88,2.95-8-2.88-12.93-8.71-14.36-17-.47-2.68-1.61-3.46-3.64-4.41-3.51-1.65-7-3.48-9.58-6.48A34.55,34.55,0,0,1,594.93,115.21Zm54,22.52a35,35,0,0,0,2.18-4,19.53,19.53,0,0,0-5.43-22.23c-6.16-5.3-13.34-6.29-20.93-3.71-6.88,2.33-10.69,7.48-12.59,14.36-.48,1.74.11,2.15,1.43,2.7,5.73,2.4,11.33,5.12,17.14,7.24C636.72,134.25,642.9,135.87,649,137.73Zm-2.66,2.91L612,127.85c-.16,6.8,5.27,14.64,11.74,17.14C632.11,148.23,639.42,147.28,646.29,140.64Zm7.25-8.38c-1,2-1.93,4-2.92,6,3,1.11,6.13,2.29,9.29,3.38a1.14,1.14,0,0,0,1.34-1.84A27.25,27.25,0,0,0,653.54,132.26ZM611.8,117.58c-4.54-2.55-8.44-2.64-10.4.18l8.73,5.85Z" transform="translate(-8.18 -40.61)"/>
          <path class="cls-7" d="M641.29,86.43a12.44,12.44,0,0,1,3.19.18c5.13,1.73,10.28,3.65,14.28,7.34,3.11,2.86,5.64,6.37,8.28,9.7a32,32,0,0,1,6.73,14.16c.18,1,.91,2.31-.63,3-5.5-16.17-14-29.4-32.12-33.55Z" transform="translate(-8.18 -40.61)"/>
          <path class="cls-7" d="M580.72,125a44.19,44.19,0,0,1,8.13-18.38c3.23-4.23,7.4-7.49,11.57-10.75a52.68,52.68,0,0,1,21.06-10.35c1.09-.24,2.1-.81,3.18-1a5.09,5.09,0,0,1,2.42.35C604.67,90.32,588.62,102.89,580.72,125Z" transform="translate(-8.18 -40.61)"/>
          <path class="cls-7" d="M675.59,126.26a3.85,3.85,0,0,1,3.9,3.86,3.68,3.68,0,0,1-3.43,3.22c-2.41,0-4-1.48-3.95-3.63A3.44,3.44,0,0,1,675.59,126.26Zm-2,2.92,0,.88a9.34,9.34,0,0,0,2.41,1.35,1.15,1.15,0,0,0,1.43-1.52,3.3,3.3,0,0,0-1.82-1.86C675.08,127.88,674.27,128.76,673.6,129.18Z" transform="translate(-8.18 -40.61)"/>
          <path class="cls-7" d="M595.9,137a2.63,2.63,0,0,1,2.83,2.73,2.21,2.21,0,0,1-2.42,2.07c-1.22,0-2.71-1.33-2.59-2.49C593.86,137.85,594.59,136.87,595.9,137Z" transform="translate(-8.18 -40.61)"/>
          <path class="cls-7" d="M284.53,85.5c-.14.75-.24,1.35-.36,2-2-.57-2.28-1.44-1.45-4,1.17,1.31,3.18-1.62,4.08,1A12.83,12.83,0,0,1,287,87.4Z" transform="translate(-8.18 -40.61)"/>
          <path class="cls-7" d="M290.17,88.5a8.29,8.29,0,0,1,.87-1.88c.12-.17.85.13,1.3.21l-1.29,2.08Z" transform="translate(-8.18 -40.61)"/>
          <path class="cls-7" d="M235.73,114.86c1.27-1.09,2.58-2.17,3.82-3.33,3.4-3.18,5.4-2.83,9-.46,2.06,1.37,2.22,6.21.48,8.51-1.17,1.55-2.14,3-1.56,5.21.52,2-2.07,4-5,4.77a20.93,20.93,0,0,0-5.55,2.37,4.54,4.54,0,0,0-2.33,4.49,8.56,8.56,0,0,1-1.23,4.46,3.29,3.29,0,0,1-5.24.74c-1-.89-2.4-1.46-2.54-3.3-.11-1.48-4.06-1.57-5.38-.25a16.33,16.33,0,0,1-3.63,3.25A16.58,16.58,0,0,1,211,143c-2,.24-1.69-1.95-2.13-3.09-.29-.75.39-1.85.57-2.81.13-.68.44-1.64.12-2a2.38,2.38,0,0,0-2-.24,9.69,9.69,0,0,0-2.66,1.31c-3,2-6.37.47-6.78-3.23a10,10,0,0,1,.26-3.4c.16.83.37,1.66.49,2.5.45,3.1,3,4.27,5.64,2.65a15.37,15.37,0,0,1,2.48-1.21c1.26-.48,2.46-.82,3.64.4a2.86,2.86,0,0,1,.2,3.68,3,3,0,0,0,.34,4c2.85-.72,5.71-1.17,7.64-4.09,1.53-2.33,5-2.56,7.29-.92.46.32.41,1.3.81,1.81a12.52,12.52,0,0,0,2.68,2.84,2.38,2.38,0,0,0,2.25-.5,5.86,5.86,0,0,0,1.41-3.1c.34-5.21,3-8.3,8.19-9.26a6.51,6.51,0,0,0,2.3-.52c1.4-.87,2.74-1.82,2.26-3.94a4.42,4.42,0,0,1,1.52-4.46,4.48,4.48,0,0,0,.2-6.84,5.42,5.42,0,0,0-6.85-.46,24.22,24.22,0,0,1-4.51,3.09,38.3,38.3,0,0,1-5.69,1.61l-.22-.65c.56-.21,1.13-.41,1.68-.64,2.26-.94,3.12-3.18,2-5.14s-2.63-1.93-4-.28c-2.06,2.53-6.62,3.46-9.36,1.9-2.49-1.41-2.78-3.57-.4-5.1,1.64-1,1.88-1.9,1-3.54a4.8,4.8,0,0,1,.51-5.24,5.85,5.85,0,0,0-1-7.24c-2.23-2-4.55-1.14-7-.61,2.8-2.17,5.62-2.16,7.92,0A6.79,6.79,0,0,1,223,98.49a4.38,4.38,0,0,0-.26,4.87c.88,1.47.89,2.82-.76,4a11.14,11.14,0,0,0-1.91,2.31c1.22.62,2.46,1.78,3.65,1.72,2.22-.11,4.42-.47,6-2.71a2.91,2.91,0,0,1,5.29.77A30.62,30.62,0,0,1,235.73,114.86Z" transform="translate(-8.18 -40.61)"/>
        </g>
      </g>
      <g>
        <path class="cls-7" d="M136.34,458.43c2.73-.39,5.45-.86,8.18-1.16,7.82-.86,15.66-1.54,23.47-2.49,5.17-.64,10.3-1.61,15.44-2.49a5.76,5.76,0,0,0,1.51-.69,13.53,13.53,0,0,1-.58-2.27q-.65-11.2-1.22-22.42c-.16-3.08-.21-6.16-.44-9.24-.2-2.65-.67-5.29-.88-7.94-.36-4.55-.63-9.1-.9-13.66-.22-3.56-.42-7.12-.56-10.68q-.36-9.4-.64-18.81c-.25-8.29-.43-16.59-.74-24.88-.29-7.95-.68-15.89-1.08-23.82-.07-1.58-.35-3.15-.5-4.48L158,314.5l-.23-.73a9.39,9.39,0,0,1,2.62-1.1c4.39-.38,8.81-.63,13.21-.88,1.27-.08,2.54,0,3.91,0-.86-14.36-1.71-28.61-2.58-43l-5.4-.42-.09-.65,5.91-.68-5.22-12.89h-5.48c.64-2.27,2.84-.89,4.11-2.06-.11-4.46,0-9.16-2-13.59a2.48,2.48,0,0,0-1.12-1.31c-1.68-.59-1.76-1.77-1.72-3.3a32.16,32.16,0,0,0-2.05-13.46c-1.9-4.56-3.94-9.06-5.86-13.61a3.13,3.13,0,0,0-3.49-2.17,27.11,27.11,0,0,1-4.71-.5l0-.48h6.21l-2.77-7.13c-2.52,1.44-5.52,6.68-5.79,7a9.55,9.55,0,0,1-.82,2.36c-3.29,4.94-4.61,10.56-6.13,16.19-1.07,4-.69,8-1.35,11.9a13.44,13.44,0,0,1-.86,2.31V225.12c.63-2.39,1.08-4.85,1.92-7.17a102.49,102.49,0,0,1,4.66-11.43,121.51,121.51,0,0,1,6.62-10.83,1.33,1.33,0,0,1,2.42,0c1,1.68,1.91,3.43,2.79,5.18,2,4,4.14,7.85,5.77,11.94,2,5,4.35,9.94,4.63,15.48q.16,3.18.43,6.34a1.24,1.24,0,0,0,.53.77,7.17,7.17,0,0,1,3.06,5.49c.33,3.2.63,6.4,1.12,9.57a20.07,20.07,0,0,0,1.38,4.87c1.64,3.81,3.69,7.46,5.1,11.35.67,1.86.3,4.11.34,6.19.13,6.64.11,13.3.38,19.94.75,18.28,1.63,36.55,2.45,54.83.25,5.57.46,11.15.76,16.73a2.64,2.64,0,0,0,.91,1.78c4.75,3.48,9.56,6.87,14.53,10.42,1.28-4,2.5-7.81,3.7-11.63s2.32-7.72,3.59-11.55c.8-2.4.66-2.75-1.93-3.28a2.57,2.57,0,0,1-1.56-.73c-.37-.56-.73-1.6-.45-2a2.27,2.27,0,0,1,2-.72c8.29,2.42,16.22,5.82,23,11.17,5.07,4,9.72,8.55,13,14.42a81.67,81.67,0,0,1,8.23,19.49c.11.42,1.17,1,1.47.89,2-1,4-2.11,5.91-3.2l-.34-.58-1.41.81-.23-.23,1.85-2c1.14-1.19,2.2-2.47,3.44-3.54a4.68,4.68,0,0,1,2.42-1,31.52,31.52,0,0,1,6.13-.21c4.22.44,7.33-1.74,10.41-4.17l-4,1.54-.17-.25c.78-.43,1.54-.89,2.32-1.3,5.37-2.82,10.77-5.58,16.1-8.48,1.29-.71,2.09-.75,3.23.32,4,3.77,8.84,6.07,14.05,7.8,6.32,2.09,12.56,4.44,18.8,6.75a3.69,3.69,0,0,0,4-.74c2.2-1.8,4.47-3.5,6.75-5.19s4.82-3.57,7.29-5.27c3.92-2.7,7.92-5.29,11.83-8a40.72,40.72,0,0,0,5.49-4.24c1.55-1.53,3.06-.89,4.49-.33,6.81,2.67,13.61,5.37,20.33,8.26,5.52,2.37,11.33,3.43,17.19,4.41a37.67,37.67,0,0,1,3.84,1.05l0,.63c-.68.2-1.42.67-2,.53-3.85-.85-7.69-1.76-11.49-2.79-2.67-.73-5.27-1.68-7.9-2.52l-.19.53,12.63,4.14c-12.3-1.38-22-9.07-33.05-12.42l-35.09,23,1.24.89c-.15.06-.3.18-.38.14-1.66-.69-3,0-4.45.78a53.71,53.71,0,0,1-7.11,3,10.22,10.22,0,0,1-3.18,0c0-.28-.06-.56-.1-.84l8.5-2.06-.1-.35c-3.47-1-7-1.8-10.4-3.07-6-2.29-12-4.86-17.94-7.35a5.68,5.68,0,0,1-2.19-1.34c-2.61-3-7-2.69-10-.78-3.4,2.16-6.55,4.74-10,6.81a18.1,18.1,0,0,1-6.17,2.17,30.43,30.43,0,0,1-6.75.1,5.12,5.12,0,0,0-5,2.5c-2.67,4.16-4.45,5.69-9.16,7.19.09,5.55.4,11,.2,16.35a47.53,47.53,0,0,1-5.47,19.7,57.67,57.67,0,0,1-14.48,18.44A53.36,53.36,0,0,1,212,456.9a2.43,2.43,0,0,1-2.1-.8c-.27-.31,0-1.51.43-1.94a2.23,2.23,0,0,0,.36-3.17c-1.63-2.86-3-5.85-4.56-8.77a9.47,9.47,0,0,0-1.2-1.51l-.64.2a23.19,23.19,0,0,0,0,3.82c1,5.92,2.11,11.81,3,17.75.55,3.51.83,7.08,1.17,10.62a3.72,3.72,0,0,1-.38,1.29,8.63,8.63,0,0,0,6.06,3.29c3.1.42,4.88,2.4,6,5.13.53,1.29.89,2.65,1.49,3.9a8,8,0,0,0,1.48,1.68,13.51,13.51,0,0,1,1.09-1.29,2,2,0,0,1,1.11-.62q3.83.13,7.65.43c4.47.34,6.52,2.28,7.23,6.73.22,1.37.5,2.73.75,4.1l-.75.19-1.55-4.77-.81,2.48-.38-.09c0-1.33.08-2.67,0-4-.12-1.59-1.24-2.32-2.62-2.88-3-1.19-6.08-.92-9.26-1.14v1.3c-.86.12-1.6.25-2.34.33a2.06,2.06,0,0,1-2.55-1.35c-.16-.47-.49-1.16-.86-1.25-2.3-.51-3.24-2.31-4.33-4.07a2.31,2.31,0,0,0-1.73-.67,6.26,6.26,0,0,0-1.88.61c-1.48.53-2.75,1.05-3.62-1.14-.35-.86-2-1.2-3.28-1.9,1.05-1,2.71-1,3.3-.11,1.75,2.6,3.78,1.71,5.92,1a2.64,2.64,0,0,0,1.39-.79c-1.7-.38-3.4-.74-5.09-1.15a3,3,0,0,1-1.52-.63c-2-2.24-3.85-2.5-6.28-.57-1.37,1.09-2.62,2-4.43.91-.29-.17-1.26.11-1.33.35a15.86,15.86,0,0,0-.57,3.43c0,.45.51.9.65,1.4.8,2.76-.41,5-3.9,5.78-5,1.14-7.69,4.71-10.45,8.38-1.34-2-5.65-2.49-7.41-.82A33.36,33.36,0,0,0,173,499.1c-.7.82-1.36,1.69-2,2.53l-.5-.38a50.73,50.73,0,0,1,4.68-5.88,4.6,4.6,0,0,1,3.72-.79c4.62,1.2,3.39,1,6.71-3.35-.68.57-1.35,1.17-2.07,1.7a1.14,1.14,0,0,1-.88.21c-2.44-.68-4.63.31-6.91.87a27.47,27.47,0,0,1-4.08.21c-5,.42-10,.9-15,1.33a8.56,8.56,0,0,0-3,.52,6.7,6.7,0,0,0-2-.86c-3.25-.21-6.51-.23-9.75-.45-1.87-.13-3.73-.51-5.59-.77v-1.2l2.85.66c-1.57-6.54-1.66-18.5-.06-19.81,0,.42,0,.72,0,1a75.27,75.27,0,0,0,.89,17.48c.08.51.41,1.33.72,1.39,1.64.27,3.31.34,5,.49-.5-3.73-.95-7.14-1.42-10.55s-.95-6.74-1.4-10l-6.57-.67v-.39l6-.47,0,.33-2,.31c7-.32,14-1.12,20.91-1.9,5.63-.63,11.29-1.09,16.89-1.91,3.5-.52,6.93-1.58,10.4-2.38a3.11,3.11,0,0,0,2.44-3.35,47.53,47.53,0,0,0-.5-7.54c-.42-2.72-1.15-3-3.83-2.35a19.26,19.26,0,0,1-2.51.39c-8.33,1-16.66,1.94-25,2.86-3.93.44-7.88.73-11.82,1.14-3.68.39-7.34.85-11,1.28Zm75.29-2.8c14.23-3.44,34.41-28.4,32.86-40H225v27.71c-.41-.4-.58-.49-.58-.57-.08-9.18-.16-18.35-.17-27.53,0-.33.72-.94,1.11-.94,5.41-.1,10.82-.18,16.23-.14,3.71,0,3.86,0,4-3.81,0-.56.13-1.12.25-2.07l-18.65-.47c0-.26,0-.52,0-.77h18.51c1.62-14.35-7.57-37.6-21.28-46.9.71,10.78,1.4,21.31,2.09,31.84l-.54,0c-.3-3.52-.55-7.05-.91-10.56-.61-6.18-1.33-12.36-1.91-18.54a15.92,15.92,0,0,1,.39-3.33l.54-.44-15.65-8.87c-1.35,3.71-2.6,7-3.7,10.26-1.28,3.87-2.36,7.82-3.65,11.69-1.07,3.17-2.78,6.19-3.4,9.44-1.36,7.09-3.93,13.73-6.59,20.37a5.13,5.13,0,0,0-.5,3.18,35.89,35.89,0,0,0,2.71,5.67c3.35,6.21,6.79,12.37,10.1,18.6,3.21,6,6.21,12.2,9.47,18.22C214.43,450.69,215.31,452.19,211.63,455.63Zm-25.47-5.83c4.55,1.8,4.6,1.78,5.48,3.72,1.58,3.44,1.55,7.11,1,10.72a5.2,5.2,0,0,1-2.37,2.89,17.71,17.71,0,0,1-3.69,1.56l7.86,12.19c.19-.89.26-1.27.37-1.65.72-2.69,1.89-3.3,4.53-2.53a2.57,2.57,0,0,0,1.92-.07c1.89-1.24,3.81-2.51,2.63-5.37a12,12,0,0,1-.43-3.14c-.55-4.85-.85-9.73-1.7-14.53-.89-5-2.09-10-1.77-15.13.17-2.8.07-2.8,2.9-2a1.41,1.41,0,0,0,.59-.1q-4.47-8.94-8.77-17.57c-3.09.37-6.26.31-9,2.53a3,3,0,0,0-1.48,3C184.87,432.7,185.51,441.16,186.16,449.8Zm8.33-68.18-13.62-9.57c1,16.77,2,32.91,2.92,49.05l.62.33c2.82-2.74,5.61-5.6,10.08-3.33-1.94-3.64-3.66-6.88-5.38-10.13a8.42,8.42,0,0,1-.54-7c.76-2.18,1.35-4.42,2-6.62C191.89,390.09,193.19,385.87,194.49,381.62Zm-33.9,111.52q-2.46-10.68-4.9-21.17l-5,.84c1,6.59,2,13,2.87,19.49.19,1.46.88,2,2.11,2,3.78-.06,7.56-.23,11.6-.37-.44-1.52-.8-2.77-1.17-4-1.64-5.55-3.29-11.1-4.88-16.67-.13-.46.18-1.05.28-1.58l.8-.06q3.08,11,6.14,22l5.39-.82a17.86,17.86,0,0,1-.59-1.93c-1.12-6.16-2.19-12.33-5-18-.28-.56,0-1.37,0-2l-11.48,1.09a4.89,4.89,0,0,0,.1.78c1.1,4.22,2.27,8.41,3.28,12.65.46,1.91.21,4.06,1,5.79C161.71,492.37,161.11,492.57,160.59,493.14Zm20.28-2.57q-3.17-10.47-6.21-20.56l-5.27.59c1.89,7,3.74,14,5.66,21.13Zm-33.46,3.51h5.26c-1.07-7.07-2.1-13.95-3.15-21l-5.45.29c.79,5.78,1.51,11.26,2.32,16.72A33.73,33.73,0,0,0,147.41,494.08Zm34.27-24.41c1.34,3.76,2.66,7.6,4.08,11.41.88,2.34,1.85,4.64,2.89,6.91.18.38,1.06.82,1.36.68,1.71-.79,3.35-1.74,5.18-2.74-1.71-2.26-2-5.29-4.77-6.65.08-3-1.8-5.27-3.42-7.4C186,470.53,184.84,467.91,181.68,469.67Zm5.44,19.73-7-19.86-4.19.36,6.21,20.23Zm19.34-15,.59-.09c-.28-1.91-.64-3.81-.82-5.73-.44-4.53-.63-9.08-1.24-13.58-.48-3.46-1.61-6.82-2.12-10.28-.26-1.76.21-3.63.34-5.45,1.11.14,2.21.28,3.32.4.08,0,.19-.14.34-.26l-.76-1.28-4.45-.26C201.21,440.23,205.5,473,206.46,474.39ZM181,367c.25,3.92.25,3.92,1.23,4.57,3.08,2,6.17,4,9.22,6.07,1.18.79,2.29,1.68,3.44,2.52l.63-.32c-.21-.74-.18-1.78-.67-2.17C190.28,374.13,185.68,370.66,181,367ZM323.1,385.87l-28.3-10.79C297.08,378,320,386.75,323.1,385.87Zm-29.38-12.26c-3.5-3.22-2.77-3-4.83-1.3Z" transform="translate(-8.18 -40.61)"/>
        <path class="cls-7" d="M136.34,416.09H144a14.56,14.56,0,0,1-7.66.79Z" transform="translate(-8.18 -40.61)"/>
        <path class="cls-7" d="M140.7,229.65c-.13-4.14,3.52-7.73,8.35-7.65,4.17.07,6.86,2.71,7.24,7.65.27,3.59-4.21,7.65-8.31,7.8C144.08,237.59,140.84,234.12,140.7,229.65Zm13.65,0c.05-3.83-2.33-6.16-6.25-6.11-2.81,0-6.14,3.33-6.15,6.09,0,3,2.69,6.26,5.37,6.19C151.44,235.69,154.56,232.57,154.35,229.63Z" transform="translate(-8.18 -40.61)"/>
        <path class="cls-7" d="M154.39,405.53c-2.06-7.59-1.86-43.95-.23-46.56,0,4.91,0,10.12,0,15.34s0,10.58,0,15.88C154.06,395.3,155.23,400.41,154.39,405.53Z" transform="translate(-8.18 -40.61)"/>
        <path class="cls-7" d="M155.16,360l23.37-.91,0,.6q-11.38.78-22.76,1.52c-.23,0-.48-.37-.72-.56C155.12,360.46,155.14,360.24,155.16,360Z" transform="translate(-8.18 -40.61)"/>
        <path class="cls-7" d="M158.59,310a17,17,0,0,0,1.12-1.49,8.66,8.66,0,0,0,.54-1.42l2.24-.32c.32,1,1.34,2.49.94,3.1C162.28,311.68,160.48,311,158.59,310Z" transform="translate(-8.18 -40.61)"/>
        <path class="cls-7" d="M159.82,368.06l1,.34c-.24.21-.39.46-.5.44a17.52,17.52,0,0,1-3.56-.9,2.35,2.35,0,0,1-.78-1.76c1.2-1,2.55-1.9,3.85-2.82.34.74,1,1.49,1,2.23A7.77,7.77,0,0,1,159.82,368.06Zm.49-2.59-.68-.75-3.19,1.59c1.12.62,2,1.36,2.25,1.19A8.42,8.42,0,0,0,160.31,365.47Z" transform="translate(-8.18 -40.61)"/>
        <path class="cls-7" d="M167.61,306.57c1.08,1.13,1.91,1.69,2.26,2.46s-1.6,2.34-3.14,2.25a3.13,3.13,0,0,1-1.62-1.31A35.25,35.25,0,0,1,167.61,306.57Zm-.17,1.46L166,309.75c.33.22.75.68,1,.6a9.23,9.23,0,0,0,1.64-1Z" transform="translate(-8.18 -40.61)"/>
        <path class="cls-7" d="M172.52,307.13l3.32,1.57.08.89-3.11,1.3-1.11-3.14Z" transform="translate(-8.18 -40.61)"/>
        <g>
          <path class="cls-7" d="M136.34,292.64c3.82,2.33,8.06,2.43,12.36,2.55a15.17,15.17,0,0,0,8.78-2.33c4.5-2.79,6.3-6.82,5.55-11.77-.72-4.79-4-7.7-8.53-9.22-6.22-2.08-12.07-1.44-17.45,2.48a3.81,3.81,0,0,1-.71.31v-3.59c7.49-4.07,15.14-4.52,22.73-.65a1.56,1.56,0,0,0,.24.83c1.13,1.19,2.46,2.21,3.48,3.48,5.2,6.49,3.38,15.63-3.32,20.31-5.46,3.82-11.17,5.16-17.54,3.52a42.83,42.83,0,0,1-5.59-2.32Z" transform="translate(-8.18 -40.61)"/>
          <path class="cls-7" d="M136.34,341.78c4.22,3.52,8.91,4.86,14.13,2.61a14.35,14.35,0,0,0,8.23-17.45c-1.24-4.12-7-8.12-11.77-8.38-4.06-.21-7.41,1.41-10.59,3.64v-1.59c.13,0,.29.06.38,0,1.68-1.05,3.23-2.42,5-3.09s3.74-.52,5.82-.75q-1-8.13-2-16.27l.48-.16a9.2,9.2,0,0,1,.68,1.9c.55,4.4,1.13,8.8,1.52,13.21.12,1.38.54,2.11,2.17,2.22,1.21-6-2-11.71-1.57-18.34.58.71,1.09,1.05,1.15,1.45.63,4.18,1.77,8.38,1.61,12.54-.15,3.83,1.46,5.58,4.29,7.56,4.38,3.08,5.73,10.51,3.72,15.91a14.46,14.46,0,0,1-18.76,8.55,28.73,28.73,0,0,1-4.53-2.76Z" transform="translate(-8.18 -40.61)"/>
          <path class="cls-7" d="M136.34,329.39c1-2.28,2.06-4.43,4.17-6.1,6-4.71,14.31-3,17.24,4s-2,14.11-8.78,15.27c-5.31.91-10.46-1.56-12.63-7.59Zm10.2,12.4c5.62,0,10.81-4.78,10.62-10.1-.2-5.59-3.62-9.31-8.31-9.41-7.84-.18-11.68,4.66-11.72,10A9.43,9.43,0,0,0,146.54,341.79Z" transform="translate(-8.18 -40.61)"/>
          <path class="cls-7" d="M141.61,273.56c.82,1.6.4,2.19-4.29,5.61Z" transform="translate(-8.18 -40.61)"/>
          <path class="cls-7" d="M139.79,279.49q2.19-2.48,4.4-4.93l.69.62-4.59,4.74Z" transform="translate(-8.18 -40.61)"/>
          <path class="cls-7" d="M147.31,326.63l-4.14,3.75-.44-.47c1.7-1,2-3.4,4-4Z" transform="translate(-8.18 -40.61)"/>
          <path class="cls-7" d="M141.52,328.77c.61-2,2.14-3.57,3.62-3.33Z" transform="translate(-8.18 -40.61)"/>
        </g>
      </g>
      <path class="cls-7" d="M468.94,275.3c-6.8.23-13.6.49-20.4.7-1.17,0-2.36-.11-3.9-.19.53,3.43,1.07,7,1.61,10.49l-.49.29c-.29-.41-.79-.78-.86-1.23a190,190,0,0,1-2.52-23.09c-.19-5.87-1.09-11.71-1.65-17.57a4.54,4.54,0,0,1,.21-1.24l.51,0c.37,3.1.77,6.2,1.1,9.3.26,2.48.44,5,.64,7.46.3,3.84.56,7.68.9,11.51.21,2.29.77,2.8,3.06,2.82,5.21,0,10.41,0,15.61-.05a14.13,14.13,0,0,0,4.23-.73c1.72-.59,2,.14,1.89,1.56Z" transform="translate(-8.18 -40.61)"/>
      <path class="cls-7" d="M464,277.48c.84.27,1.37.66,1.76.55,1.51-.42,2.1.42,2.08,1.61s-.58,2.43-2.08,2.41c-1.17,0-2.28-.51-2.24-2A15.93,15.93,0,0,1,464,277.48Z" transform="translate(-8.18 -40.61)"/>
      <path class="cls-7" d="M446.18,297.22c1.55,0,3.21,1.41,2.79,2.32a4.42,4.42,0,0,1-2.52,2,1.46,1.46,0,0,1-1.92-1.67C444.74,298.82,445.05,297.42,446.18,297.22Zm1.88,1.75-1.95-.71c-.16.84-.3,1.52-.43,2.21l.5.31Z" transform="translate(-8.18 -40.61)"/>
    </g>
    <path class="cls-8" d="M137.37,233.22a72.3,72.3,0,0,1-5.66,25.68c-1.94,4.61-4.38,9.05-5.62,13.9-1.37,5.37-1.22,11-1,16.52q1.54,50.37,3.32,100.73l.64,18.62c.58,16.81,1.15,33.62,1.36,50.45a25.75,25.75,0,0,0,10.3-.66" transform="translate(-8.18 -40.61)"/>
    <path class="cls-8" d="M137.36,272.47l-2.94,4a14.45,14.45,0,0,0-3.06,6.09,11,11,0,0,0,1.36,6.81,25.15,25.15,0,0,0,4,5.11" transform="translate(-8.18 -40.61)"/>
    <path class="cls-7" d="M136.37,321.19a17.32,17.32,0,0,0-4.53,10.36c-.31,4,1.14,8.46,4.7,10.26" transform="translate(-8.18 -40.61)"/>
    <path class="cls-7" d="M129.65,458.09l-2.65.46c-1.14,2.23-1.25,4.83-1.34,7.33-.07,2.18,0,4.75,1.82,6a6.32,6.32,0,0,0,3.32.85q3.27.19,6.53.11" transform="translate(-8.18 -40.61)"/>
    <path class="cls-7" d="M126.17,469.85c-.43,6.92-5.06,13-5.51,19.95q8.13,2,16.4,3.31" transform="translate(-8.18 -40.61)"/>
    <path class="cls-7" d="M132.9,472.6a60.65,60.65,0,0,0-4,18.57" transform="translate(-8.18 -40.61)"/>
    <path class="cls-3" d="M122.67,356.72a96.47,96.47,0,0,0-7.82-8.22,88.12,88.12,0,0,0-8.7-7.22,95.67,95.67,0,0,0-9.5-6.09c-1.64-.91-3.31-1.78-5-2.59a33.17,33.17,0,0,0-5.1-2.11,4.85,4.85,0,0,0-2.44-.09,4.5,4.5,0,0,0-2,1.29c-.62.63-1.24,1.38-2,2.06l-1,1-1.11.94a46.7,46.7,0,0,1-9.8,6c-3.43,1.66-6.92,3.13-10.28,4.85a44,44,0,0,0-9.5,6.12,40.87,40.87,0,0,1,9.15-6.77c3.32-1.87,6.77-3.46,10.11-5.23A49.58,49.58,0,0,0,77,334.63l1-.91,1-1c.67-.64,1.24-1.36,2-2.09A6,6,0,0,1,83.72,329a6.32,6.32,0,0,1,3.18.07,17,17,0,0,1,2.78,1c.87.4,1.74.78,2.6,1.21,1.72.84,3.42,1.72,5.07,2.68a80,80,0,0,1,9.49,6.4,85.64,85.64,0,0,1,8.52,7.62A80,80,0,0,1,122.67,356.72Z" transform="translate(-8.18 -40.61)"/>
    <path class="cls-3" d="M124,398.47q-7.55,1.44-15,3.06-3.75.83-7.47,1.72c-2.48.6-5,1.21-7.43,1.85-5,1.26-9.86,2.64-14.75,4.1s-9.75,3-14.59,4.66l.37-.43-2.54,9.83c-.89,3.26-1.74,6.53-2.68,9.77.61-3.33,1.32-6.63,2-9.94l2.13-9.89.06-.31.3-.11c4.79-1.83,9.65-3.48,14.55-5s9.86-2.85,14.84-4.07c2.49-.59,5-1.16,7.5-1.69s5-1,7.55-1.43C113.78,399.69,118.86,399,124,398.47Z" transform="translate(-8.18 -40.61)"/>
    <path class="cls-3" d="M100.25,459.81a.41.41,0,0,1-.46.41,1.34,1.34,0,0,1-.64-.23,2.34,2.34,0,0,1-.9-1,20.41,20.41,0,0,0-1.42-2.22A22.35,22.35,0,0,0,93.22,453,26.58,26.58,0,0,0,84.11,448a38.75,38.75,0,0,0-10.28-1.66,68.54,68.54,0,0,0-10.5.58l.59-1a20.53,20.53,0,0,1-.43,14,20.81,20.81,0,0,1-3.56,6.07,18.75,18.75,0,0,1-5.39,4.41,20.14,20.14,0,0,0,4.92-4.78,22.41,22.41,0,0,0,3.11-6,20.4,20.4,0,0,0,0-13.21l-.3-.83.89-.12a61,61,0,0,1,10.73-.62,36.16,36.16,0,0,1,10.64,1.91,26.83,26.83,0,0,1,9.25,5.54,20.42,20.42,0,0,1,3.44,4.15,19.13,19.13,0,0,1,1.27,2.36,2.36,2.36,0,0,0,.75,1,1.37,1.37,0,0,0,.57.27A.38.38,0,0,0,100.25,459.81Z" transform="translate(-8.18 -40.61)"/>
    <path class="cls-3" d="M55.19,505.67a6.67,6.67,0,0,0-6.31-1.46l-2.57.8,2.32-1.44a17.26,17.26,0,0,1,6.17-2.26,36.83,36.83,0,0,1,6.52-.52,77,77,0,0,1,13,1,92.25,92.25,0,0,1,12.6,3.07c4.1,1.18,8.28,2.28,12.6,1.89-4.26.91-8.7.14-12.88-.84-2.1-.5-4.17-1-6.26-1.5s-4.18-.84-6.28-1.17a98.92,98.92,0,0,0-12.74-1.08c-4.24-.07-8.58.07-12.35,2l-.26-.64A6.84,6.84,0,0,1,55.19,505.67Z" transform="translate(-8.18 -40.61)"/>
    <path class="cls-3" d="M82,487.34a14,14,0,0,1,4-2.19,18,18,0,0,1,9.14-.82,14.17,14.17,0,0,1,4.35,1.43c-1.52-.12-3-.24-4.47-.27a39.72,39.72,0,0,0-8.7.78C84.91,486.56,83.48,486.94,82,487.34Z" transform="translate(-8.18 -40.61)"/>
    <path class="cls-7" d="M225,81.88q8.72-.78,17.45-.88c2.56,0,5.24,0,7.49,1.23" transform="translate(-8.18 -40.61)"/>
    <path class="cls-7" d="M278.54,82.5a8.08,8.08,0,0,1,.49-4.37,6,6,0,0,1,1.64-1.87,15,15,0,0,1,4.48-2.44,9.81,9.81,0,0,1,4-.65,23.47,23.47,0,0,1,3.08.66,18.19,18.19,0,0,1,3,.72,11.23,11.23,0,0,1,2,1.19,8.25,8.25,0,0,1,2.15,1.88c1.08,1.48,1.14,3.48,1,5.32" transform="translate(-8.18 -40.61)"/>
    <g class="cls-9">
      <path class="cls-3" d="M450.08,498.15c-2.14,3.27-11.61,3.43-15,2.74-1-.19-2.44-1.4-3.16-1.43l-4.42,2.41a18.59,18.59,0,0,0,2.41,1.73,15.8,15.8,0,0,0,8.58,1.87c7.68-.36,7.73-12.37,0-12-3.49.17-5.41-3-8.94-3.3a8.9,8.9,0,0,0-7.56,3.29c-4.64,5.68-1.34,13.12,4.22,16.67,5.3,3.39,11.79,3.2,17.78,2.41,6.61-.87,12.61-2.46,16.46-8.33,4.24-6.48-6.15-12.5-10.37-6.06Z" transform="translate(-8.18 -40.61)"/>
    </g>
    <g class="cls-9">
      <path class="cls-3" d="M468.9,493.55c-3.1,7.71-.73,15.49,8,17.2a60.09,60.09,0,0,0,14,.88,19.18,19.18,0,0,0,6-1c.9-.33,3.28-2.36,4.1-2.32,4.23.22,6.41-4,5.79-7.59-1.26-7.28-12-5.81-17.21-6.07v12l5.93-.15c7.71-.19,7.74-12.19,0-12l-5.93.15c-7.75.19-7.69,11.61,0,12,1.63.08,7-.59,8.29.24l-2.76-3.59.11.61,5.78-7.6c-4.34-.22-6.94,3.26-11.06,3.33-2.61,0-5.22-.08-7.82-.29-3.16-.27-2.92.57-1.64-2.61,2.89-7.17-8.71-10.28-11.57-3.19Z" transform="translate(-8.18 -40.61)"/>
    </g>
    <g class="cls-9">
      <path class="cls-3" d="M441.79,386.08a111.06,111.06,0,0,0,6,21l5.79-7.59-4.91-.09c-6.7-.11-8.24,10.19-1.6,11.79a81,81,0,0,0,25,1.77c7.8-.57,17.06-.84,24.4-3.65a42,42,0,0,0,4.25-2.26c1.85-.94,3.58-1.13,5.5-1.91a9.78,9.78,0,0,0,5.9-7.16c.84-3.52.39-7.43.39-11s.55-7.38-1.63-10.37c-4.41-6-13.88-3.14-19.85-2.05-8.65,1.59-17.53.71-26.26.9-6.31.13-16.89-.5-20,6.35-3,6.6,4.22,16.19,7.31,21.71,2.65,4.71,9.39,3.3,11-1.43,1.51-4.52,1.71-9.17,1.7-13.9l-11.18,3a65.06,65.06,0,0,0,8.73,12.29c2.75,3.07,7.37,1.78,9.43-1.21,4.29-6.27,6.41-17.48-2.25-20.82-2.67-1-5.27.76-6.77,2.75-3.53,4.68-1.79,12.31,3,15.43,4.64,3,11.55,1.2,13.81-3.87l-11.18-3a9.23,9.23,0,0,0,9.14,9.83c5.26,0,9.25-4.31,10.09-9.26l-7.38,4.19c-.63-.14.06,0,.38.51a9.6,9.6,0,0,0,1.67,1.76,9.06,9.06,0,0,0,5.36,2.35,8.25,8.25,0,0,0,4.88-1.29,8.62,8.62,0,0,0,2.44-2.41,6.92,6.92,0,0,0,.79-1.13c.92-1.26.07-1.14-2.57.38l-3.58-2.76.33.71c1.93,4.09,8.34,3.75,10.36,0l2.41-4.44c1.66-3.06.42-8.19-3.59-8.81-8.21-1.28-22.16-3.54-25.18,7-2.12,7.44,9.45,10.62,11.57,3.19-1.32,1.05-1.42,1.34-.29.85a15.11,15.11,0,0,1,2.69-.12,49,49,0,0,1,8,.62l-3.58-8.82-2.41,4.45h10.36c-2.33-4.95-9.08-4.94-12.66-1.43-.41.4-2,1.84-1.93,2.57q6.57,2,4.38-.06a14.82,14.82,0,0,1-1-1.12,9.53,9.53,0,0,0-5.68-3.6c-2.92-.65-6.82.86-7.38,4.19-.83,2.3.61,3.18,4.34,2.62.5-5.76-8.79-8.42-11.18-3l3.87.56-6.78,2.76.93.36L463,389.22c1,2.54-.24,4.94-1.67,7l9.43-1.21a51.62,51.62,0,0,1-6.86-9.86c-2.87-5.29-11.2-2.82-11.18,3a32.29,32.29,0,0,1-1.27,10.71l11-1.44c-1.36-2.43-2.68-4.87-3.94-7.36-.22-.44-1.56-4.11-2-4.17l-2.37,2.51,1.21-.28c3.05.13,6.41-.64,9.51-.7,2.79-.06,5.59,0,8.39,0a122.5,122.5,0,0,0,16.59-.66c2.65-.34,5.21-.91,7.82-1.39.63-.11,3.78-.1,4.34-.44,1.38.3,1.29-.19-.26-1.45q-1.72-3.24-1.13.47c-.52,2.74,0,6.15,0,8.92,0,.07.27,3.69.59,1.68,1-.71.78-.82-.8-.32l-1.42.26c-2.36.72-4.15,2.43-6.35,3.4s-5,1.2-7.52,1.55c-11.52,1.62-23.3,2.88-34.74.13l-1.59,11.78,4.91.09c3.57.06,7.23-3.94,5.78-7.6a111.06,111.06,0,0,1-6-21c-1.38-7.58-12.95-4.37-11.57,3.19Z" transform="translate(-8.18 -40.61)"/>
    </g>
    <g class="cls-9">
      <path class="cls-3" d="M180.07,459c-.06,1.53.44,1.11,1.5-1.24l-3.87.22-5.82.33-14.54.82c-8.5.48-17.11,2.43-25.59,1.48l5.18,3-.34-.77-5.78,7.59c18.95-1.45,39.16-2.49,57.5-7.76l-7.38-4.19.12.84c.46,3.23,4.53,4.94,7.38,4.19,3.45-.91,4.65-4.19,4.19-7.38l-.12-.84c-.46-3.19-4.58-5-7.38-4.19-17.37,5-36.37,6-54.31,7.33-4,.31-6.75,3.59-5.79,7.6,1.84,7.64,9.52,7.37,16,6.78,7.39-.67,14.65-1.56,22.09-2,7-.39,15.06.28,21.81-1.49,6.48-1.7,7.58-7.73,6.67-13.5-1.2-7.61-12.76-4.38-11.57,3.19Z" transform="translate(-8.18 -40.61)"/>
    </g>
    <g class="cls-9">
      <path class="cls-3" d="M477.86,283.83a16.48,16.48,0,0,0,11.92-12.25c1.62-7-2-12.25-4-18.63-4.23-13.5-20-17.28-32.75-17.76-7.72-.3-7.71,11.7,0,12,5.87.22,17.69,1.47,20.74,7.44.68,1.35.82,3.07,1.35,4.51.69,1.89,1.88,3.61,2.54,5.5,1.1,3.19.65,6.62-3,7.62-7.43,2.06-4.27,13.65,3.19,11.57Z" transform="translate(-8.18 -40.61)"/>
    </g>
    <g class="cls-9">
      <path class="cls-3" d="M509.2,313.3l11.16,11.22c3.85,3.88,6.4,5.65,3,10.93-2.25,3.53-4.6,6.74-6.3,10.59s-3.19,8.16-6.27,11.32c-5.39,5.54,3.09,14,8.49,8.49,4.1-4.21,6-9.22,8.45-14.46,2.47-5.4,6.84-9.78,8.69-15.45a15.38,15.38,0,0,0-3.36-15.53c-4.79-5.48-10.3-10.44-15.42-15.6-5.45-5.48-13.94,3-8.49,8.49Z" transform="translate(-8.18 -40.61)"/>
    </g>
    <g class="cls-9">
      <path class="cls-3" d="M478.94,295c15.33-4.74,17,13.65,17.35,24.1q.87,24.71,1.73,49.41h12c-1.72-15.51-3.85-31.24-7.73-46.38a69.54,69.54,0,0,0-7.42-18.88,45.06,45.06,0,0,0-5.55-7.34c-2-2.1-5.88-4.2-6.67-7l-7.38,7.38c2.44.34,4.56,1.92,6.7,3.12a41.3,41.3,0,0,1,6.86,4.17c1.57,1.35,2.6,3.2,4.41,4.3s4.36,1.49,6.51,2a6.1,6.1,0,0,0,7.38-4.19c2.65-10.86-8.13-19.75-17.37-22.76l-1.6,11.78c-1-.78-1.11-.78-.37,0a10.43,10.43,0,0,1,1.4,2,25.71,25.71,0,0,1,2.29,4.61,27.43,27.43,0,0,1,1.63,9.95c0,7.72,12,7.73,12,0,0-9.1-4.55-29.44-16.95-28.52-6.69.5-8.21,9.62-1.59,11.79,2.31.75,9.83,4.56,9,8l7.38-4.19c-2.49-.58-3-.52-4.61-2.2a27.62,27.62,0,0,0-5.84-4.53c-4.14-2.5-9.16-6.17-14-6.85-4.33-.61-8.74,2.53-7.38,7.38,1.79,6.38,7.39,9.15,11.26,14.06,4,5.13,6.3,11.41,8,17.65,3.93,14.55,6,29.77,7.7,44.72.83,7.48,12.27,7.88,12,0l-1.11-31.63c-.33-9.56-.16-19.31-1.35-28.82-1-7.88-3.58-15.65-10-20.73a23.81,23.81,0,0,0-21.79-3.91c-7.36,2.28-4.22,13.86,3.19,11.58Z" transform="translate(-8.18 -40.61)"/>
    </g>
    <g class="cls-9">
      <path class="cls-3" d="M144.45,207.71a68.93,68.93,0,0,1,10.41,20.64c2.19,7.35,2.71,15,4.24,22.46,1.66,8.17,4.89,15.93,6.41,24.13,1.55,8.35,1.32,17.09,1.58,25.55,1.06,34.47,2.42,68.95,3,103.44.15,9.78.2,19.57.09,29.36-.08,7.13-1.26,16.78,6.46,20.55a6.09,6.09,0,0,0,9-5.19A146.84,146.84,0,0,0,183,410.48c-1.5-7.57-13.07-4.37-11.57,3.19a134.13,134.13,0,0,1,2.19,35l9-5.18c-1.22-.59-.58-5.68-.56-7.25q.1-6.84.1-13.7c0-8.48-.11-17-.27-25.45-.34-16.94-.91-33.88-1.43-50.81L179,296.6c-.24-8-.35-16-1.73-23.94s-4.41-15.43-6.19-23.26c-1.89-8.32-2.31-16.88-4.86-25.06a78.81,78.81,0,0,0-11.38-22.68c-4.48-6.21-14.89-.22-10.36,6.05Z" transform="translate(-8.18 -40.61)"/>
    </g>
  </g>
</svg>
