<svg id="BACKGROUND_1" data-name="BACKGROUND 1" xmlns="http://www.w3.org/2000/svg" viewBox="0 0 1451.54 1028.23">
  <defs>
    <style>
      .cls-1, .cls-2 {
        fill: #3c7796;
      }

      .cls-1 {
        opacity: 0.05;
      }

      .cls-3, .cls-4 {
        fill: none;
      }

      .cls-3, .cls-4, .cls-5, .cls-6 {
        stroke: #3c7796;
        stroke-miterlimit: 10;
      }

      .cls-3 {
        stroke-width: 4px;
      }

      .cls-4, .cls-6 {
        stroke-width: 3px;
      }

      .cls-5, .cls-6 {
        fill: #166a99;
      }
    </style>
  </defs>
  <title>VS-5</title>
  <path class="cls-1" d="M296.17,1063.47a72.82,72.82,0,0,1-13.94-2.64c-52.6-15.18-103.2-87-112.25-131.3-9.84-48.14-14.76-82.25-17.22-191.91S110.93,517.38,108.47,468.1s2.46-78.82,0-150.17S93.7,202.35,160.14,147,239.8,81.72,309.46,81.72s139.36,24.61,222.62,24.61,148.59-2.46,234-2.46S885.05,84.18,985.17,81.72s201-27.07,247.75,12.3,132.87,87,164.86,79.18,116.53,11.05,129.62,90.19,13.09,110.43,18,176,24.6,114.65,0,163.92-56.42,26.22-38.05,114,29.1,102.07,20,182.28,85.41,139.27-62.34,178.64-91.89-17.22-261.66-14.76-146.17,34.44-326.52,34.44-170.51,4.92-268.93,0S296.17,1063.47,296.17,1063.47Z" transform="translate(-105.98 -71.87)"/>
  <g>
    <path class="cls-2" d="M1072.86,459.73c-25.9-23.6-80.1,7-104.4,18.7-38.9,18.9-84.9,44.3-113.8,78.5a6.36,6.36,0,0,0-1.3,2.4c-18.6-16.9-38.9-30.4-59.1-39-129.4-54.3-235.3,87.6-213.8,205-61.5-1-228.2,125.8-164.3,195.5,21.5,23.5,69.1,6.4,93-1.4,48.1-15.6,94.1-39.5,138.6-63.8,5.5-2.9,10.8-6,16.3-8.9,77,46.5,189.4,5,239.4-64.1,23.9-33.1,28.6-70.3,20.9-106.4a776.58,776.58,0,0,0,78.1-75.8,400.29,400.29,0,0,0,48.1-44C1070.16,535.43,1101.86,486.13,1072.86,459.73ZM576.76,748c5.5-2.2,5.1-9.8,1.1-11.9,1.5-.8,2.9-1.8,4.4-2.7,1.5,6,3.1,12,5.2,18a26.22,26.22,0,0,0-4.3,1.8c.1-1.1-.5-2.5-1.7-2.4-9.2.7-20.5,5.7-31.8,13.5A112.89,112.89,0,0,1,576.76,748Zm-21.9,26.4c-26.1,27.2-43.4,68.4-7.9,79.2-10.6,3.6-21.1,7.1-32,10.1a69.6,69.6,0,0,1-7.1,1.5c-1.1-17.9,12.2-44,18.2-53.9A197.13,197.13,0,0,1,554.86,774.43Zm-125.3,87.7a127.63,127.63,0,0,0-3.6,17.6c-2,15.8.9,28.1,7,36.7C411.66,909.63,417.26,885.63,429.56,862.13Zm65.5,49.7a6,6,0,0,0-8.2-2.2c-56,28.8-49.9-39.1-31.8-72.4,12.4-22.8,30.9-41.6,50.9-57.8,2.4-1.7,4.8-3.4,7.4-4.9a283.76,283.76,0,0,0-34.8,42.6c-13.5,20.1-28.2,65.2,9.6,67.6a90.2,90.2,0,0,0,10.4,0c9.9,11.2,21.9,14.8,34.6,14.2A285,285,0,0,1,495.06,911.83Zm-6.6-50c-4.9-5.2-3.9-15.1,3.3-28.4,1.3-2.5,2.8-5.2,4.4-7.8C490.46,837.93,487.46,850.53,488.46,861.83Zm40.4,21a40.88,40.88,0,0,1-6.3-.4c26.3-4.7,53.1-15.6,78.7-29.2C579.36,867.73,554.66,882.23,528.86,882.83Zm78-55.9c-8.4,4.7-17,8.9-25.7,12.8-3.7.6-7.5.8-11.4,1.1-52.4,2.1-13.5-48.2-4.7-58.2a124.92,124.92,0,0,1,26.1-22.1,147.38,147.38,0,0,0,39.2,52.4C622.56,817.83,614.66,822.63,606.86,826.93Zm31.1-18.4c-44.7-47.3-62.3-107.4-40.4-173.9,23.5-71.2,94-119.7,165.6-106a142.19,142.19,0,0,1,16.7,4.5c-15.2,7.1-29.3,16.8-45.9,21.2-4.1,1.1-2.4,7.8,1.7,6.7,18.4-4.5,36.8-13.5,52.7-24.2a2.18,2.18,0,0,1,.5-.4c22.5,9.1,43.3,23.9,60.8,42.5,0,.1-.1.1-.1.3-4,5.7-.4,11,4.7,12.7-24.2,10.9-44.9,28.2-67.8,42.2-5.1,3.1-.5,11,4.5,8.1,25.3-13.8,48.8-31,74.5-44a213.11,213.11,0,0,1,17.5,27.5c-27,10.3-53.6,22.1-79.7,34.8-4.1,2.1-1.2,9.5,3.2,7.8,27.3-10.9,54.9-20.3,80.7-34.4,2.4,5.2,4.8,10.3,6.8,15.6-.7.4-1.3.7-2,1.1-44,23.6-87.7,45.5-129.4,73.6C721,751.93,680.46,781.93,638,808.53Zm33.2,16.3a7.77,7.77,0,0,0,1.7-5.9c4.1-2.5,8.4-4.9,12.4-7.4,47.6-29.5,93.2-62.2,140.9-91.6,25.4-15.8,50.4-32.4,74.6-50.3.5,2.1.9,4.3,1.5,6.4-5.1,3.8-10.2,7.5-15.1,11.2-68.2,50.8-142.4,95.5-216.3,138C670.86,825.13,671,825,671.16,824.83Zm11.3,12c76.1-42.3,153.2-88.7,222.3-144.1a158.62,158.62,0,0,1,.9,26.7c-22.9,10.1-41.8,27.7-66.2,35.3-5.5,1.8-3.2,10.5,2.4,8.9,21.4-5.6,43.6-16.5,62.3-29.8-.4,3.1-.9,6-1.6,9.1a99.87,99.87,0,0,1-3.3,11.7c-16.7,13.8-32.9,27.8-52.8,37-4.9,2.4-1.5,10.9,3.7,9.2a146.64,146.64,0,0,0,35.4-18.2C845.16,843.33,751,859.53,682.46,836.83ZM920.76,662c-.7-2.1-1.2-4.1-2-6.1.5-.4,1.1-1,1.7-1.4,12.2-6.8,24.2-14,36-21.5C944.66,643.13,932.66,652.63,920.76,662Zm77.5-106.1c-18.7,32.5-57.1,58.9-85.3,81.2a14.7,14.7,0,0,1-1.3,1,235.21,235.21,0,0,0-24.2-40.9,6.05,6.05,0,0,0,6-2c12.3-13.3,26.5-25.1,40.4-36.3,9.6-7.7,19.8-14.1,30.3-20.3C973.16,533.53,1023.66,511.53,998.26,555.93Zm20.3-16.7a36.31,36.31,0,0,0-3.9-15.6c-22.2-45.3-119.5,39.8-132.4,62.7a9.11,9.11,0,0,0-.9,3.1c-2.9-3.6-5.9-7.3-9-10.6.8-1,1.6-1.8,2.4-2.8a3.34,3.34,0,0,0,3.6-.7c18.2-16.9,43.7-39.1,71.5-56.6,21.8-8.9,70.5-20.3,85-4.9A168.78,168.78,0,0,1,1018.56,539.23Zm22.3-37.6c-4.7-4.3-11.6-8.1-21-10.9a76.66,76.66,0,0,1,24.9,1C1043.56,495,1042.26,498.43,1040.86,501.63Zm8.1,28.6a39.93,39.93,0,0,0,.8-11.3c4.5-10.3,8.6-20.8,12-30.9,1.5-4.2-1.6-8.2-5.2-9.5-16.3-6-33.8-5.6-51.3-1.1,14.2-5,28.1-8.7,41.3-10.2C1087.86,462.43,1070.36,499.83,1049,530.23Z" transform="translate(-105.98 -71.87)"/>
    <path class="cls-2" d="M804.36,555.43c-18.2,6.7-35.8,14.8-54,21.5-5.2,2-3.1,10.6,2.3,8.8,18.4-6.3,36.1-14.1,53.9-21.8C811.46,561.83,809.66,553.63,804.36,555.43Z" transform="translate(-105.98 -71.87)"/>
    <path class="cls-2" d="M823.26,582.33c-17.6,5.6-33.8,14.9-48.7,26.1-3.7,2.8-.3,9.2,3.6,6.4,15-10.6,31.3-18.3,47.6-26.3C829.26,587,826.86,581.43,823.26,582.33Z" transform="translate(-105.98 -71.87)"/>
  </g>
  <path class="cls-3" d="M431.37,531.43c3,4.66,5.72,9.42,9.24,13.92,1.26,1.61,4.53,2.57,6.85,3.86,1.49.83,2.91,1.71,4.36,2.57-1.85.78-3.57,2.06-5.55,2.24-3.82.36-7.79.11-12.87.11v11.93l-2.06.57c-2.2-1.39-4.36-2.81-6.61-4.17-6.2-3.74-8.8-10.65-20.63-9.51-.56,0-1.91-.89-1.9-1.37a2.62,2.62,0,0,1,1.47-2c6.75-3.26,6.89-4.47,1-8.37a20.31,20.31,0,0,1-3-3l1.17-.92c2.66.44,5.71.49,7.89,1.4,5.87,2.45,9,.68,11.94-2.42a60,60,0,0,1,6.06-4.83Zm-13.51,13-1.11,1.18c4.25,4.87,4.84,5.06,14,3.56Z" transform="translate(-105.98 -71.87)"/>
  <path class="cls-3" d="M584.23,229.13c7.93-.12,5.33,6.71,8.71,10.07l10.38-8.55,2.07.47c-.82,4.51-1.15,9.15-2.55,13.52-3.37,10.52.3,18.93,11.07,24.09.52.25.83.88,1.4,1.51l-4.13,4.54-17.08-4.62c-5,3.81-.52,11.28-8.71,13.61.42-5.32.8-10.06,1.23-15.56-4.68,0-8.57-.17-12.44.05-3.49.21-6.95.85-10.42,1.31L562.25,267c5.89-6,11.44-12.28,17.8-17.81,3.53-3.07,8.37-4.45,4.42-10.36C583,236.58,584.23,232.87,584.23,229.13Zm1.5,21.33,1.38,1.66-14.45,10.46,13.07-2.11Z" transform="translate(-105.98 -71.87)"/>
  <path class="cls-3" d="M426.15,311.68,423,316.31c-13-2.62-16.91.13-19.67,13.83-4.24.84-7.17.13-7.4-4.63a21,21,0,0,0-1.09-4.07c-2-7.61-3.1-8-10.78-4.16a10.65,10.65,0,0,1-3.06.93c-.57.09-1.22-.3-3.86-1l9.19-6V296.62c3.73,1.08,7.74,1.48,10.75,3.28,4.23,2.53,7.21,2.44,11-.58,2.52-2,6-3,9.09-4.44l1.9.83-3.75,11.11Zm-26,12.09,7-10.18h-10.8Z" transform="translate(-105.98 -71.87)"/>
  <path class="cls-4" d="M1062.08,875.42l-13.58-1.64-.34-1.51c4.61-3.34,11.24-.78,16.58-3.57v-5.85l1.69-.19c.66,1.88,1.31,3.76,2.06,5.91l9.76-3.55c-1,3.37-1,6.21-2.51,8-3.31,3.82-2,6.69.56,10.12,1.53,2.09,2,4.8,3,7.23l-1.83.79-7.79-9.18-7,7.24C1058.11,885.09,1062.83,880.75,1062.08,875.42Z" transform="translate(-105.98 -71.87)"/>
  <path class="cls-3" d="M874.14,387.27c5.58-2.11,6.77,1.35,8.12,4.44,2.16,4.89,0,13.2-4.71,15.54a10.19,10.19,0,0,1-7.73,0c-1.24-.61-1.88-4.58-.93-6.07,2.19-3.47,5.5-6.36,8.87-10Z" transform="translate(-105.98 -71.87)"/>
  <path class="cls-3" d="M1197.23,437.46c-4.24-3.39-8.2-5.27-9.67-8.19-1-1.87,1.72-5.28,2.89-8,.21-.48,1.24-.68,1.45-1.17,3.1-7.2,7-4.1,11.36-1,3.52,2.45,7.56,5,4.83,9.12C1205.9,431.57,1201.69,433.8,1197.23,437.46Zm.57-17.48-3.06.24c-1.24,2.66-3.14,5.28-3.36,8-.08,1,4,3.24,6,3.08,2.43-.18,4.69-2.31,7-3.6Q1201.11,423.86,1197.8,420Z" transform="translate(-105.98 -71.87)"/>
  <path class="cls-5" d="M1191.77,715.87c.78-5.41,4.25-6.48,7.47-6.63a6.86,6.86,0,0,1,5.21,3.21c1,2.26-4.51,7.59-7.23,6.92C1195,718.83,1193.24,716.87,1191.77,715.87Z" transform="translate(-105.98 -71.87)"/>
  <path class="cls-5" d="M1395.2,210.82l-8.86-3.36c2.15-1.46,9-1.64,10.25.6a6.75,6.75,0,0,1-.27,6.12c-1.78,2.65-10.78,2.79-13.66.75-2.31-1.64-2.33-3.16-.08-6.08C1383.51,214.24,1387.42,215.15,1395.2,210.82Z" transform="translate(-105.98 -71.87)"/>
  <path class="cls-3" d="M1077.53,263q-1.26,3.59-2.54,7.17l1.72,1.33,7.56-7.19-7.34-5.61c2.93-1.67,6.92-2.12,9.56,2.16,2.35,3.82.24,6.84-3.43,9.11-.35.22-.52.7-.88.89-3.44,1.79-7.46,6.17-10.64,1.87-1.52-2.07,1.67-7,2.73-10.66Z" transform="translate(-105.98 -71.87)"/>
  <path class="cls-6" d="M1368.53,881c6.12.12,7.86,1.72,7,6.41-.6,3.31-2,6.69-6.39,6.69-3.22,0-4.39-5.61-1.8-11.59.57,2.79,1.14,5.58,1.74,8.49C1374.85,888.22,1374.8,887.11,1368.53,881Z" transform="translate(-105.98 -71.87)"/>
  <path class="cls-6" d="M1346.53,814.37c-1.85,3.94-4,6.4-8.23,3.77-1-.65-2-3.14-1.52-3.89C1340,809.69,1343,813.28,1346.53,814.37Z" transform="translate(-105.98 -71.87)"/>
</svg>
